<?xml version="1.0" ?>
<svg xmlns="http://www.w3.org/2000/svg" version="1.1" width="600" height="600">
  <defs/>
  <g>
    <path stroke-width="0" fill="rgb(0, 0, 0)" opacity="1.0" d="M 283.7597961425781 295.14324951171875 C 294.9931640625 282.85601806640625 305.6374206542969 270.3904113769531 315.7015686035156 257.5604553222656 C 325.7579345703125 244.72044372558594 335.2331237792969 231.51458740234375 344.3079528808594 218.1162567138672 C 353.0959777832031 204.3673553466797 361.9244079589844 190.09982299804688 370.0373229980469 174.58123779296875 C 374.37188720703125 167.08534240722656 378.44097900390625 159.1950225830078 382.2446594238281 150.92050170898438 C 386.4271240234375 143.00668334960938 390.1436767578125 134.506591796875 394.1514587402344 126.13111114501953 C 401.92645263671875 126.892578125 409.2571716308594 129.18051147460938 416.42034912109375 132.4654083251953 C 423.5975341796875 135.7401580810547 429.29498291015625 139.48399353027344 433.50347900390625 143.50399780273438 C 425.4112243652344 153.43328857421875 417.5472717285156 162.75213623046875 409.8739013671875 171.4235382080078 C 402.5275573730469 180.41400146484375 395.4779357910156 188.87203979492188 388.7703857421875 196.82989501953125 C 381.9581298828125 204.60804748535156 375.5989990234375 212.3286590576172 369.6983337402344 219.9977264404297 C 363.61505126953125 227.4878692626953 357.7977600097656 234.73562622070312 352.26800537109375 241.76608276367188 C 341.1968078613281 255.8140411376953 330.9047546386719 269.2371826171875 321.3889465332031 282.031494140625 C 311.83880615234375 294.638427734375 302.713134765625 307.5111389160156 293.8233642578125 320.4641418457031 C 289.31268310546875 335.6324462890625 285.27972412109375 350.9927673339844 281.38177490234375 366.2892761230469 C 277.48223876953125 381.580078125 274.052978515625 396.25640869140625 271.0892639160156 410.2998962402344 C 268.09344482421875 424.2825927734375 265.5987548828125 437.22698974609375 264.0700988769531 449.3830871582031 C 262.34552001953125 461.2228088378906 261.30194091796875 471.3285217285156 261.301513671875 479.94097900390625 C 258.058349609375 480.0538635253906 252.85391235351562 479.3480224609375 245.65777587890625 477.9482727050781 C 238.63893127441406 476.50836181640625 231.3101348876953 474.94708251953125 223.63290405273438 473.2723083496094 C 216.33489990234375 471.3585510253906 209.4681854248047 469.64349365234375 203.04444885253906 468.1225280761719 C 197.14874267578125 466.21563720703125 193.5654296875 464.72650146484375 192.2853240966797 463.48114013671875 C 197.15264892578125 455.7071228027344 201.82530212402344 445.9443359375 206.3204803466797 434.2257080078125 C 211.19064331054688 422.7003479003906 215.79415893554688 410.4557189941406 220.1301727294922 397.4986267089844 C 224.64572143554688 384.52099609375 228.936279296875 371.4945068359375 232.99215698242188 358.38836669921875 C 237.37803649902344 345.4233093261719 241.2825469970703 333.2599792480469 244.88609313964844 321.8665466308594 C 241.14207458496094 310.3209533691406 237.45729064941406 299.1435852050781 233.63258361816406 288.5321960449219 C 230.20538330078125 277.5281066894531 226.63687133789062 267.09393310546875 222.92994689941406 257.2215881347656 C 219.6154022216797 246.89271545410156 215.9709014892578 237.4198455810547 212.57644653320312 228.2572021484375 C 209.20147705078125 219.0544891357422 206.0406494140625 210.23049926757812 202.77194213867188 202.02313232421875 C 196.22105407714844 185.63792419433594 189.89939880371094 171.6042022705078 183.8186798095703 159.89395141601562 C 177.69772338867188 148.22312927246094 172.00503540039062 139.17214965820312 166.54534912109375 132.73831176757812 C 169.513671875 131.48912048339844 174.2028350830078 130.43333435058594 180.30899047851562 129.18887329101562 C 186.36660766601562 127.58904266357422 193.30807495117188 126.45258331298828 200.6396942138672 125.20399475097656 C 207.9916534423828 123.80486297607422 215.47047424316406 122.71121215820312 223.0647430419922 121.92418670654297 C 230.71034240722656 120.98485565185547 237.55592346191406 120.33475494384766 243.51927185058594 120.33159637451172 C 243.70388793945312 127.8647232055664 244.3385467529297 136.97088623046875 245.4166717529297 147.83436584472656 C 246.79547119140625 158.512939453125 248.5876922607422 169.91116333007812 250.77210998535156 182.07901000976562 C 253.2960205078125 194.10507202148438 255.94764709472656 206.4308624267578 258.7258605957031 219.069580078125 C 261.68988037109375 231.5514678955078 264.65545654296875 243.01312255859375 267.6270751953125 253.4524383544922 C 270.7739562988281 263.59381103515625 273.6613464355469 272.56304931640625 276.4679870605469 280.2090148925781 C 279.4273376464844 287.7069396972656 281.73687744140625 292.7993469238281 283.7597961425781 295.14324951171875"/>
  </g>
</svg>
