<?xml version="1.0" ?>
<svg xmlns="http://www.w3.org/2000/svg" version="1.1" width="600" height="600">
  <defs/>
  <g>
    <path stroke-width="0" fill="rgb(0, 0, 0)" opacity="1.0" d="M 283.6636657714844 295.1648254394531 C 294.8832092285156 282.7467956542969 305.57647705078125 270.3192443847656 315.77178955078125 257.6303405761719 C 325.8016052246094 244.76455688476562 335.25335693359375 231.53741455078125 344.2561340332031 218.09181213378906 C 352.99957275390625 204.2689208984375 361.85589599609375 190.0306854248047 369.9484558105469 174.49288940429688 C 374.291259765625 167.0051727294922 378.3600158691406 159.1144256591797 382.2173767089844 150.90725708007812 C 386.52008056640625 143.09950256347656 390.224609375 134.5873260498047 394.2353210449219 126.21559143066406 C 402.009765625 126.808349609375 409.3332214355469 129.10067749023438 416.4622497558594 132.4181671142578 C 423.50018310546875 135.7910614013672 429.2047119140625 139.57928466796875 433.4190979003906 143.4024200439453 C 425.3311767578125 153.35348510742188 417.4983215332031 162.71466064453125 409.9513244628906 171.500732421875 C 402.6098937988281 180.4961700439453 395.5706481933594 188.9642791748047 388.8576965332031 196.91712951660156 C 382.03228759765625 204.6826629638672 375.6680603027344 212.39718627929688 369.78759765625 220.08692932128906 C 363.71246337890625 227.58541870117188 357.8894958496094 234.825439453125 352.3682861328125 241.86582946777344 C 341.2864074707031 255.89901733398438 330.9190979003906 269.2496643066406 321.319580078125 281.96337890625 C 311.73687744140625 294.5370178222656 302.60626220703125 307.4049377441406 293.7194519042969 320.35980224609375 C 289.3775939941406 335.68389892578125 285.2991027832031 351.0011291503906 281.470703125 366.376953125 C 277.5704345703125 381.6668395996094 274.14935302734375 396.3507385253906 271.1802978515625 410.3901672363281 C 268.1763610839844 424.3613586425781 265.6729431152344 437.29730224609375 264.1811218261719 449.4801330566406 C 262.3301086425781 461.2943115234375 261.21319580078125 471.396728515625 261.19366455078125 480.0155334472656 C 258.12457275390625 479.97930908203125 252.91921997070312 479.27301025390625 245.57403564453125 478.0548095703125 C 238.74244689941406 476.39813232421875 231.2745361328125 474.9853820800781 223.58056640625 473.33941650390625 C 216.27783203125 471.41290283203125 209.42076110839844 469.69677734375 203.06884765625 468.10986328125 C 197.13926696777344 466.1138610839844 193.49078369140625 464.79296875 192.36241149902344 463.38531494140625 C 197.24562072753906 455.7987060546875 201.91201782226562 446.030517578125 206.3320770263672 434.24957275390625 C 211.1289825439453 422.6407165527344 215.74244689941406 410.40460205078125 220.0440673828125 397.4150695800781 C 224.5344696044922 384.41253662109375 228.82901000976562 371.3907470703125 232.8948211669922 358.2933349609375 C 237.29771423339844 345.34429931640625 241.2020721435547 333.18060302734375 244.92562866210938 321.7695617675781 C 241.23619079589844 310.22808837890625 237.54759216308594 299.05401611328125 233.52638244628906 288.6451416015625 C 230.29736328125 277.4361877441406 226.72579956054688 267.005126953125 223.00946044921875 257.1422424316406 C 219.70191955566406 246.80673217773438 216.0467071533203 237.34466552734375 212.48716735839844 228.3384246826172 C 209.11749267578125 219.13726806640625 205.961669921875 210.3084716796875 202.6924285888672 202.10250854492188 C 196.14175415039062 185.71730041503906 189.8176727294922 171.68594360351562 183.73806762695312 159.97438049316406 C 177.75387573242188 148.16432189941406 172.07933044433594 139.09727478027344 166.61875915527344 132.6453857421875 C 169.5750732421875 131.54771423339844 174.2828369140625 130.51370239257812 180.40660095214844 129.2987060546875 C 186.2718505859375 127.47933197021484 193.2514190673828 126.3991928100586 200.5591583251953 125.12281036376953 C 207.9295196533203 123.73973083496094 215.39588928222656 122.6344223022461 222.9847412109375 121.8438720703125 C 230.6351776123047 120.90998077392578 237.6323699951172 120.41206359863281 243.41616821289062 120.22622680664062 C 243.77011108398438 127.78455352783203 244.4362030029297 136.87982177734375 245.49891662597656 147.75306701660156 C 246.87269592285156 158.4375457763672 248.65869140625 169.84109497070312 250.84585571289062 182.00550842285156 C 253.38111877441406 194.0230712890625 256.0423278808594 206.3867950439453 258.6192932128906 219.17483520507812 C 261.590576171875 231.6498260498047 264.5670166015625 243.09974670410156 267.5435485839844 253.53555297851562 C 270.6955871582031 263.671142578125 273.5863037109375 272.63812255859375 276.3896789550781 280.2862548828125 C 279.3509216308594 287.78277587890625 281.6290588378906 292.90228271484375 283.6636657714844 295.1648254394531"/>
  </g>
</svg>
