<?xml version="1.0" encoding="utf-8"?>
<svg xmlns="http://www.w3.org/2000/svg" xmlns:ev="http://www.w3.org/2001/xml-events" xmlns:xlink="http://www.w3.org/1999/xlink" version="1.1" baseProfile="full" width="7296.0" height="1476.0" viewBox="192.0 -1476.0 7296.0 1476.0">
<defs/>
<g><path d="M 1042.000000 -835.000000 C 1148.666667 -777.666667 1225.666667 -717.333333 1273.000000 -654.000000 C 1320.333333 -590.666667 1344.000000 -516.333333 1344.000000 -431.000000 C 1344.000000 -333.000000 1317.000000 -252.333333 1263.000000 -189.000000 C 1209.666667 -125.666667 1124.000000 -78.333333 1006.000000 -47.000000 C 888.000000 -15.666667 732.666667 0.000000 540.000000 0.000000 C 494.666667 0.000000 446.666667 0.000000 396.000000 0.000000 C 345.333333 0.000000 288.000000 0.000000 224.000000 0.000000 C 202.666667 -123.333333 192.000000 -237.333333 192.000000 -342.000000 C 192.000000 -447.333333 192.000000 -548.333333 192.000000 -645.000000 C 192.000000 -790.333333 197.000000 -929.666667 207.000000 -1063.000000 C 217.000000 -1196.333333 232.000000 -1332.666667 252.000000 -1472.000000 C 317.333333 -1472.000000 384.333333 -1472.000000 453.000000 -1472.000000 C 521.666667 -1472.000000 591.333333 -1472.000000 662.000000 -1472.000000 C 792.000000 -1472.000000 903.000000 -1464.000000 995.000000 -1448.000000 C 1087.666667 -1432.666667 1158.333333 -1403.666667 1207.000000 -1361.000000 C 1255.666667 -1318.333333 1280.000000 -1255.666667 1280.000000 -1173.000000 C 1280.000000 -1098.333333 1258.000000 -1033.333333 1214.000000 -978.000000 C 1170.000000 -923.333333 1112.666667 -875.666667 1042.000000 -835.000000z M 542.000000 -829.000000 C 596.666667 -829.000000 649.333333 -836.666667 700.000000 -852.000000 C 750.666667 -867.333333 796.666667 -888.333333 838.000000 -915.000000 C 880.000000 -941.666667 913.333333 -972.333333 938.000000 -1007.000000 C 962.666667 -1041.666667 975.000000 -1078.666667 975.000000 -1118.000000 C 975.000000 -1166.666667 948.666667 -1199.000000 896.000000 -1215.000000 C 844.000000 -1231.666667 782.333333 -1240.000000 711.000000 -1240.000000 C 671.000000 -1240.000000 634.333333 -1238.000000 601.000000 -1234.000000 C 568.333333 -1230.000000 545.000000 -1222.000000 531.000000 -1210.000000 C 521.000000 -1200.666667 512.666667 -1179.000000 506.000000 -1145.000000 C 500.000000 -1111.666667 497.000000 -1072.333333 497.000000 -1027.000000 C 497.000000 -981.666667 497.000000 -936.000000 497.000000 -890.000000 C 497.000000 -870.666667 500.000000 -855.666667 506.000000 -845.000000 C 512.666667 -834.333333 524.666667 -829.000000 542.000000 -829.000000z M 697.000000 -232.000000 C 756.333333 -232.000000 812.000000 -239.000000 864.000000 -253.000000 C 916.000000 -267.000000 958.000000 -290.333333 990.000000 -323.000000 C 1022.666667 -355.666667 1039.000000 -398.333333 1039.000000 -451.000000 C 1039.000000 -492.333333 1028.000000 -530.333333 1006.000000 -565.000000 C 984.666667 -600.333333 957.333333 -628.000000 924.000000 -648.000000 C 891.333333 -668.666667 858.333333 -679.000000 825.000000 -679.000000 C 801.666667 -679.000000 768.666667 -674.333333 726.000000 -665.000000 C 683.333333 -656.333333 638.666667 -643.666667 592.000000 -627.000000 C 551.333333 -611.666667 525.333333 -594.000000 514.000000 -574.000000 C 502.666667 -554.666667 497.000000 -527.333333 497.000000 -492.000000 C 497.000000 -435.333333 500.000000 -387.333333 506.000000 -348.000000 C 512.666667 -308.666667 525.333333 -280.000000 544.000000 -262.000000 C 558.000000 -250.000000 574.333333 -242.000000 593.000000 -238.000000 C 611.666667 -234.000000 646.333333 -232.000000 697.000000 -232.000000z "/>
</g></svg>
