<?xml version="1.0" encoding="utf-8"?>
<svg xmlns="http://www.w3.org/2000/svg" xmlns:ev="http://www.w3.org/2001/xml-events" xmlns:xlink="http://www.w3.org/1999/xlink" version="1.1" baseProfile="full" width="7296.0" height="1476.0" viewBox="192.0 -1476.0 7296.0 1476.0">
<defs/>
<g><path d="M 5592.000000 -1472.000000 C 5654.000000 -1472.000000 5715.416667 -1472.000000 5776.250000 -1472.000000 C 5837.083333 -1472.000000 5897.333333 -1472.000000 5957.000000 -1472.000000 C 5965.666667 -1439.666667 5973.500000 -1404.500000 5980.500000 -1366.500000 C 5987.500000 -1328.500000 5993.666667 -1287.666667 5999.000000 -1244.000000 C 6004.666667 -1200.333333 6008.916667 -1155.166667 6011.750000 -1108.500000 C 6014.583333 -1061.833333 6016.000000 -1013.666667 6016.000000 -964.000000 C 6016.000000 -914.666667 6016.000000 -865.250000 6016.000000 -815.750000 C 6016.000000 -766.250000 6016.000000 -716.666667 6016.000000 -667.000000 C 6016.000000 -609.666667 6016.000000 -552.666667 6016.000000 -496.000000 C 6016.000000 -439.333333 6016.000000 -383.000000 6016.000000 -327.000000 C 6016.000000 -271.000000 6013.333333 -215.750000 6008.000000 -161.250000 C 6002.666667 -106.750000 5994.666667 -53.000000 5984.000000 0.000000 C 5923.666667 0.000000 5862.750000 0.000000 5801.250000 0.000000 C 5770.500000 0.000000 5739.604167 0.000000 5708.562500 0.000000 C 5677.520833 0.000000 5646.333333 0.000000 5615.000000 0.000000 C 5592.500000 -51.666667 5569.916667 -102.166667 5547.250000 -151.500000 C 5524.583333 -200.833333 5501.833333 -249.000000 5479.000000 -296.000000 C 5456.166667 -343.000000 5433.250000 -388.833333 5410.250000 -433.500000 C 5387.250000 -478.166667 5364.166667 -521.666667 5341.000000 -564.000000 C 5318.000000 -606.500000 5294.500000 -648.812500 5270.500000 -690.937500 C 5246.500000 -733.062500 5222.000000 -775.000000 5197.000000 -816.750000 C 5172.000000 -858.500000 5146.500000 -900.062500 5120.500000 -941.437500 C 5094.500000 -982.812500 5068.000000 -1024.000000 5041.000000 -1065.000000 C 5041.000000 -1020.166667 5041.000000 -976.604167 5041.000000 -934.312500 C 5041.000000 -892.020833 5041.000000 -851.000000 5041.000000 -811.250000 C 5041.000000 -771.500000 5041.000000 -733.020833 5041.000000 -695.812500 C 5041.000000 -658.604167 5041.000000 -622.666667 5041.000000 -588.000000 C 5041.000000 -553.500000 5041.583333 -520.250000 5042.750000 -488.250000 C 5043.916667 -456.250000 5045.666667 -425.500000 5048.000000 -396.000000 C 5052.666667 -337.000000 5059.666667 -283.000000 5069.000000 -234.000000 C 5078.666667 -185.000000 5087.416667 -141.000000 5095.250000 -102.000000 C 5103.083333 -63.000000 5110.000000 -29.000000 5116.000000 0.000000 C 5059.666667 0.000000 5003.250000 0.000000 4946.750000 0.000000 C 4890.250000 0.000000 4833.666667 0.000000 4777.000000 0.000000 C 4770.333333 -52.000000 4764.416667 -106.000000 4759.250000 -162.000000 C 4754.083333 -218.000000 4749.666667 -276.000000 4746.000000 -336.000000 C 4742.666667 -396.000000 4740.166667 -455.666667 4738.500000 -515.000000 C 4736.833333 -574.333333 4736.000000 -633.333333 4736.000000 -692.000000 C 4736.000000 -748.333333 4736.000000 -803.166667 4736.000000 -856.500000 C 4736.000000 -909.833333 4736.000000 -961.666667 4736.000000 -1012.000000 C 4736.000000 -1062.666667 4737.500000 -1110.666667 4740.500000 -1156.000000 C 4743.500000 -1201.333333 4748.000000 -1244.000000 4754.000000 -1284.000000 C 4760.000000 -1324.000000 4766.250000 -1360.000000 4772.750000 -1392.000000 C 4779.250000 -1424.000000 4786.000000 -1452.000000 4793.000000 -1476.000000 C 4840.000000 -1472.000000 4887.083333 -1470.000000 4934.250000 -1470.000000 C 4981.416667 -1470.000000 5028.666667 -1472.000000 5076.000000 -1476.000000 C 5094.166667 -1454.000000 5113.541667 -1429.145833 5134.125000 -1401.437500 C 5154.708333 -1373.729167 5176.500000 -1343.166667 5199.500000 -1309.750000 C 5222.500000 -1276.333333 5246.708333 -1240.062500 5272.125000 -1200.937500 C 5297.541667 -1161.812500 5324.166667 -1119.833333 5352.000000 -1075.000000 C 5379.833333 -1030.166667 5408.187500 -981.979167 5437.062500 -930.437500 C 5451.500000 -904.666667 5466.067708 -878.057292 5480.765625 -850.609375 C 5495.463542 -823.161458 5510.291667 -794.875000 5525.250000 -765.750000 C 5540.208333 -736.625000 5555.296875 -706.661458 5570.515625 -675.859375 C 5585.734375 -645.057292 5601.083333 -613.416667 5616.562500 -580.937500 C 5632.041667 -548.458333 5647.651042 -515.140625 5663.390625 -480.984375 C 5679.130208 -446.828125 5695.000000 -411.833333 5711.000000 -376.000000 C 5711.000000 -431.166667 5710.458333 -484.208333 5709.375000 -535.125000 C 5708.291667 -586.041667 5706.666667 -634.833333 5704.500000 -681.500000 C 5702.333333 -728.166667 5699.625000 -772.708333 5696.375000 -815.125000 C 5693.125000 -857.541667 5689.333333 -897.833333 5685.000000 -936.000000 C 5680.666667 -974.166667 5676.270833 -1010.312500 5671.812500 -1044.437500 C 5667.354167 -1078.562500 5662.833333 -1110.666667 5658.250000 -1140.750000 C 5649.083333 -1200.916667 5639.666667 -1253.000000 5630.000000 -1297.000000 C 5611.333333 -1385.000000 5598.666667 -1443.333333 5592.000000 -1472.000000z "/>
</g></svg>
