<?xml version="1.0" ?>
<svg xmlns="http://www.w3.org/2000/svg" version="1.1" width="600" height="600">
  <defs/>
  <g>
    <path stroke-width="0" fill="rgb(0, 0, 0)" opacity="1.0" d="M 348.41937255859375 120.9755859375 C 360.6922607421875 120.9755859375 372.924560546875 120.9755859375 385.11614990234375 120.9755859375 C 397.3077392578125 120.9755859375 409.45867919921875 120.9755859375 421.569091796875 120.9755859375 C 424.49505615234375 131.86990356445312 427.25848388671875 146.91058349609375 429.859375 166.09756469726562 C 431.1597900390625 175.6097412109375 432.358642578125 185.8536376953125 433.45587158203125 196.82925415039062 C 434.5531005859375 207.80487060546875 435.54876708984375 219.51217651367188 436.44281005859375 231.95123291015625 C 437.41815185546875 244.3089599609375 438.149658203125 257.2154541015625 438.6373291015625 270.67071533203125 C 439.125 284.12603759765625 439.36883544921875 298.13006591796875 439.36883544921875 312.68292236328125 C 439.36883544921875 329.756103515625 438.35284423828125 345.6910400390625 436.3209228515625 360.48779296875 C 434.28900146484375 375.2845458984375 431.2410888671875 388.943115234375 427.17718505859375 401.46337890625 C 423.19464111328125 413.9024658203125 417.68804931640625 424.9593505859375 410.6575927734375 434.6341552734375 C 403.6270751953125 444.3089599609375 395.0726318359375 452.60162353515625 384.99420166015625 459.51220703125 C 374.91583251953125 466.3414306640625 362.84613037109375 471.46337890625 348.78515625 474.8780517578125 C 334.72412109375 478.292724609375 318.671875 480.0 300.6282958984375 480.0 C 277.54547119140625 480.0 257.3480224609375 476.6463623046875 240.0360107421875 469.93902587890625 C 222.723876953125 463.231689453125 208.297119140625 453.17071533203125 196.7557373046875 439.756103515625 C 185.21435546875 426.3414306640625 176.55828857421875 409.430908203125 170.78759765625 389.0244140625 C 167.9022216796875 378.8211669921875 165.73828125 367.743896484375 164.29559326171875 355.79266357421875 C 162.8529052734375 343.8414306640625 162.131591796875 331.0162658691406 162.131591796875 317.31707763671875 C 162.131591796875 303.9024353027344 162.395751953125 290.75201416015625 162.92401123046875 277.8658447265625 C 163.45233154296875 264.97967529296875 164.2447509765625 252.35772705078125 165.3013916015625 240.0 C 166.43927001953125 227.56097412109375 167.6787109375 215.67071533203125 169.01983642578125 204.32925415039062 C 170.36090087890625 192.98779296875 171.8035888671875 182.19512939453125 173.34783935546875 171.95120239257812 C 176.4364013671875 151.46340942382812 179.44366455078125 134.4715576171875 182.36962890625 120.9755859375 C 195.292724609375 120.9755859375 208.2362060546875 120.9755859375 221.199951171875 120.9755859375 C 234.1636962890625 120.9755859375 247.147705078125 120.9755859375 260.152099609375 120.9755859375 C 259.1767578125 126.34146118164062 257.55126953125 135.5284423828125 255.2755126953125 148.53659057617188 C 253.16229248046875 161.38211059570312 250.886474609375 176.66665649414062 248.44818115234375 194.39022827148438 C 246.0098876953125 211.95120239257812 243.9779052734375 230.9755859375 242.3524169921875 251.46340942382812 C 240.889404296875 271.7886047363281 240.15789794921875 292.35772705078125 240.15789794921875 313.17071533203125 C 240.15789794921875 332.11383056640625 241.4583740234375 348.31298828125 244.0592041015625 361.768310546875 C 246.6600341796875 375.22357177734375 250.5614013671875 385.9349365234375 255.76318359375 393.9024658203125 C 266.3292236328125 409.6748046875 281.36553955078125 417.56097412109375 300.87213134765625 417.56097412109375 C 316.47735595703125 417.56097412109375 328.912841796875 414.3089599609375 338.178466796875 407.80487060546875 C 347.444091796875 401.13818359375 354.19012451171875 390.081298828125 358.41650390625 374.6341552734375 C 362.80548095703125 359.0244140625 365.0 338.21136474609375 365.0 312.19512939453125 C 365.0 296.99188232421875 364.6951904296875 282.27642822265625 364.08563232421875 268.04876708984375 C 363.47601318359375 253.82113647460938 362.5616455078125 240.081298828125 361.342529296875 226.82928466796875 C 360.20458984375 213.57720947265625 359.00579833984375 201.30081176757812 357.7459716796875 190.0 C 356.48614501953125 178.69915771484375 355.16546630859375 168.37399291992188 353.78369140625 159.02438354492188 C 351.18280029296875 140.3251953125 349.39471435546875 127.64227294921875 348.41937255859375 120.9755859375"/>
  </g>
</svg>
