<?xml version="1.0" ?>
<svg xmlns="http://www.w3.org/2000/svg" version="1.1" width="600" height="600">
  <defs/>
  <g>
    <path stroke-width="0" fill="rgb(0, 0, 0)" opacity="1.0" d="M 162.41448974609375 295.268310546875 C 167.67764282226562 298.0650634765625 171.47698974609375 301.00811767578125 173.8125 304.0975341796875 C 176.14804077148438 307.18701171875 177.3157958984375 310.81298828125 177.3157958984375 314.9755859375 C 177.3157958984375 319.756103515625 175.98355102539062 323.6910400390625 173.319091796875 326.780517578125 C 170.6875 329.86993408203125 166.46054077148438 332.1788330078125 160.63815307617188 333.707275390625 C 154.8157958984375 335.23577880859375 147.15130615234375 336.0 137.64474487304688 336.0 C 135.40789794921875 336.0 133.03948974609375 336.0 130.53948974609375 336.0 C 128.03948974609375 336.0 125.21054077148438 336.0 122.05264282226562 336.0 C 121.0 329.9837646484375 120.47369384765625 324.4227294921875 120.47369384765625 319.31707763671875 C 120.47369384765625 314.1788330078125 120.47369384765625 309.2520751953125 120.47369384765625 304.53662109375 C 120.47369384765625 297.4471435546875 120.72039794921875 290.650390625 121.21380615234375 284.1463623046875 C 121.70724487304688 277.64227294921875 122.44735717773438 270.99188232421875 123.4342041015625 264.19512939453125 C 126.65789794921875 264.19512939453125 129.96380615234375 264.19512939453125 133.35198974609375 264.19512939453125 C 136.74014282226562 264.19512939453125 140.17764282226562 264.19512939453125 143.66448974609375 264.19512939453125 C 150.07894897460938 264.19512939453125 155.555908203125 264.5853271484375 160.09539794921875 265.3658447265625 C 164.66775512695312 266.11383056640625 168.15460205078125 267.5284423828125 170.555908203125 269.6097412109375 C 172.95724487304688 271.6910400390625 174.15789794921875 274.74798583984375 174.15789794921875 278.780517578125 C 174.15789794921875 282.4227294921875 173.0723876953125 285.593505859375 170.90130615234375 288.292724609375 C 168.73025512695312 290.9593505859375 165.90130615234375 293.2845458984375 162.41448974609375 295.268310546875M 137.743408203125 295.56097412109375 C 140.4407958984375 295.56097412109375 143.03948974609375 295.18701171875 145.53948974609375 294.43902587890625 C 148.03948974609375 293.6910400390625 150.3092041015625 292.6666259765625 152.34869384765625 291.3658447265625 C 154.42105102539062 290.0650634765625 156.0657958984375 288.569091796875 157.28289794921875 286.8780517578125 C 158.5 285.18701171875 159.10855102539062 283.382080078125 159.10855102539062 281.46337890625 C 159.10855102539062 279.0894775390625 157.8092041015625 277.51220703125 155.21054077148438 276.731689453125 C 152.64474487304688 275.918701171875 149.60198974609375 275.51220703125 146.08224487304688 275.51220703125 C 144.10855102539062 275.51220703125 142.29934692382812 275.6097412109375 140.65460205078125 275.80487060546875 C 139.04275512695312 276.0 137.89144897460938 276.3902587890625 137.20065307617188 276.9755859375 C 136.70724487304688 277.430908203125 136.29605102539062 278.48779296875 135.96710205078125 280.1463623046875 C 135.67105102539062 281.7723388671875 135.52304077148438 283.6910400390625 135.52304077148438 285.9024658203125 C 135.52304077148438 288.11383056640625 135.52304077148438 290.3414306640625 135.52304077148438 292.5853271484375 C 135.52304077148438 293.5284423828125 135.67105102539062 294.2601318359375 135.96710205078125 294.780517578125 C 136.29605102539062 295.30078125 136.88815307617188 295.56097412109375 137.743408203125 295.56097412109375M 145.39144897460938 324.68292236328125 C 148.319091796875 324.68292236328125 151.0657958984375 324.3414306640625 153.631591796875 323.6585693359375 C 156.19735717773438 322.9755859375 158.26974487304688 321.83740234375 159.84869384765625 320.243896484375 C 161.46054077148438 318.650390625 162.26644897460938 316.569091796875 162.26644897460938 314.0 C 162.26644897460938 311.9837646484375 161.72369384765625 310.130126953125 160.63815307617188 308.43902587890625 C 159.58554077148438 306.7154541015625 158.23684692382812 305.3658447265625 156.59210205078125 304.3902587890625 C 154.98025512695312 303.382080078125 153.35198974609375 302.8780517578125 151.70724487304688 302.8780517578125 C 150.555908203125 302.8780517578125 148.92764282226562 303.105712890625 146.82235717773438 303.56097412109375 C 144.71710205078125 303.9837646484375 142.51315307617188 304.60162353515625 140.21054077148438 305.4146728515625 C 138.20394897460938 306.16259765625 136.92105102539062 307.0244140625 136.36184692382812 308.0 C 135.80264282226562 308.943115234375 135.52304077148438 310.27642822265625 135.52304077148438 312.0 C 135.52304077148438 314.76422119140625 135.67105102539062 317.105712890625 135.96710205078125 319.0244140625 C 136.29605102539062 320.943115234375 136.92105102539062 322.3414306640625 137.84210205078125 323.219482421875 C 138.53289794921875 323.80487060546875 139.33880615234375 324.19512939453125 140.25985717773438 324.3902587890625 C 141.180908203125 324.5853271484375 142.89144897460938 324.68292236328125 145.39144897460938 324.68292236328125"/>
    <path stroke-width="0" fill="rgb(0, 0, 0)" opacity="1.0" d="M 227.64474487304688 264.19512939453125 C 230.1282958984375 264.19512939453125 232.6036376953125 264.19512939453125 235.07073974609375 264.19512939453125 C 237.537841796875 264.19512939453125 239.9967041015625 264.19512939453125 242.4473876953125 264.19512939453125 C 243.03948974609375 266.3740234375 243.59869384765625 269.382080078125 244.125 273.219482421875 C 244.38815307617188 275.1219482421875 244.63076782226562 277.1707763671875 244.852783203125 279.3658447265625 C 245.0748291015625 281.56097412109375 245.27630615234375 283.9024658203125 245.45724487304688 286.3902587890625 C 245.65460205078125 288.86181640625 245.80264282226562 291.443115234375 245.90130615234375 294.1341552734375 C 246.0 296.8251953125 246.04934692382812 299.6259765625 246.04934692382812 302.53662109375 C 246.04934692382812 305.95123291015625 245.84375 309.13818359375 245.43255615234375 312.0975341796875 C 245.02139282226562 315.056884765625 244.40460205078125 317.78857421875 243.58224487304688 320.292724609375 C 242.77630615234375 322.780517578125 241.6619873046875 324.99188232421875 240.23931884765625 326.92681884765625 C 238.81661987304688 328.86181640625 237.08551025390625 330.52032470703125 235.04605102539062 331.9024658203125 C 233.006591796875 333.268310546875 230.56414794921875 334.292724609375 227.71875 334.9755859375 C 224.87335205078125 335.6585693359375 221.625 336.0 217.97369384765625 336.0 C 213.3026123046875 336.0 209.2154541015625 335.3292236328125 205.712158203125 333.98779296875 C 202.20889282226562 332.6463623046875 199.28948974609375 330.6341552734375 196.95394897460938 327.95123291015625 C 194.618408203125 325.268310546875 192.86676025390625 321.88616943359375 191.69900512695312 317.80487060546875 C 191.11514282226562 315.76422119140625 190.67721557617188 313.54876708984375 190.38528442382812 311.1585693359375 C 190.09335327148438 308.768310546875 189.9473876953125 306.2032470703125 189.9473876953125 303.46337890625 C 189.9473876953125 300.780517578125 190.00082397460938 298.150390625 190.10772705078125 295.57318115234375 C 190.21463012695312 292.9959716796875 190.375 290.4715576171875 190.58880615234375 288.0 C 190.819091796875 285.51220703125 191.06988525390625 283.1341552734375 191.34127807617188 280.8658447265625 C 191.6126708984375 278.5975341796875 191.90460205078125 276.43902587890625 192.21710205078125 274.3902587890625 C 192.84210205078125 270.292724609375 193.45065307617188 266.894287109375 194.04275512695312 264.19512939453125 C 196.65789794921875 264.19512939453125 199.27716064453125 264.19512939453125 201.9005126953125 264.19512939453125 C 204.52386474609375 264.19512939453125 207.15130615234375 264.19512939453125 209.78289794921875 264.19512939453125 C 209.58554077148438 265.268310546875 209.256591796875 267.105712890625 208.79605102539062 269.70733642578125 C 208.368408203125 272.27642822265625 207.90789794921875 275.3333740234375 207.41448974609375 278.8780517578125 C 206.92105102539062 282.3902587890625 206.5098876953125 286.19512939453125 206.180908203125 290.292724609375 C 205.8848876953125 294.35772705078125 205.73684692382812 298.4715576171875 205.73684692382812 302.6341552734375 C 205.73684692382812 306.4227294921875 206.0 309.66259765625 206.52630615234375 312.3536376953125 C 207.05264282226562 315.044677734375 207.84210205078125 317.18701171875 208.89474487304688 318.780517578125 C 211.03289794921875 321.9349365234375 214.07565307617188 323.51220703125 218.02304077148438 323.51220703125 C 221.180908203125 323.51220703125 223.6973876953125 322.86181640625 225.5723876953125 321.56097412109375 C 227.4473876953125 320.2276611328125 228.8125 318.0162353515625 229.66778564453125 314.92681884765625 C 230.555908203125 311.80487060546875 231.0 307.64227294921875 231.0 302.43902587890625 C 231.0 299.39837646484375 230.93832397460938 296.455322265625 230.81497192382812 293.6097412109375 C 230.69161987304688 290.76422119140625 230.506591796875 288.0162353515625 230.2598876953125 285.3658447265625 C 230.02960205078125 282.7154541015625 229.78701782226562 280.2601318359375 229.53207397460938 278.0 C 229.27713012695312 275.7398681640625 229.0098876953125 273.6748046875 228.73028564453125 271.80487060546875 C 228.20394897460938 268.0650634765625 227.84210205078125 265.5284423828125 227.64474487304688 264.19512939453125"/>
    <path stroke-width="0" fill="rgb(0, 0, 0)" opacity="1.0" d="M 304.8157958984375 264.19512939453125 C 307.875 264.19512939453125 310.90545654296875 264.19512939453125 313.9070739746094 264.19512939453125 C 316.90875244140625 264.19512939453125 319.881591796875 264.19512939453125 322.82568359375 264.19512939453125 C 323.2532958984375 265.7723388671875 323.63983154296875 267.48779296875 323.9852294921875 269.3414306640625 C 324.33056640625 271.19512939453125 324.6348876953125 273.18701171875 324.8980712890625 275.31707763671875 C 325.1776123046875 277.4471435546875 325.3873291015625 279.650390625 325.52716064453125 281.92681884765625 C 325.6669921875 284.2032470703125 325.73681640625 286.5528564453125 325.73681640625 288.9755859375 C 325.73681640625 291.382080078125 325.73681640625 293.792724609375 325.73681640625 296.207275390625 C 325.73681640625 298.6219482421875 325.73681640625 301.0406494140625 325.73681640625 303.46337890625 C 325.73681640625 306.2601318359375 325.73681640625 309.0406494140625 325.73681640625 311.80487060546875 C 325.73681640625 314.569091796875 325.73681640625 317.31707763671875 325.73681640625 320.04876708984375 C 325.73681640625 322.780517578125 325.60528564453125 325.4755859375 325.34210205078125 328.1341552734375 C 325.0789794921875 330.792724609375 324.6842041015625 333.4146728515625 324.15789794921875 336.0 C 321.180908203125 336.0 318.1751708984375 336.0 315.140625 336.0 C 313.62335205078125 336.0 312.0989074707031 336.0 310.5672302246094 336.0 C 309.03558349609375 336.0 307.4967041015625 336.0 305.95068359375 336.0 C 304.8404541015625 333.47967529296875 303.7261657714844 331.0162353515625 302.60772705078125 328.6097412109375 C 301.48931884765625 326.2032470703125 300.36676025390625 323.8536376953125 299.2401428222656 321.56097412109375 C 298.1134948730469 319.268310546875 296.98272705078125 317.03253173828125 295.8478698730469 314.8536376953125 C 294.7130126953125 312.6748046875 293.57403564453125 310.5528564453125 292.430908203125 308.48779296875 C 291.29608154296875 306.4146728515625 290.13653564453125 304.3505859375 288.95233154296875 302.2957763671875 C 287.7680969238281 300.2408447265625 286.5592041015625 298.19512939453125 285.32568359375 296.1585693359375 C 284.09210205078125 294.1219482421875 282.8338928222656 292.094482421875 281.5509948730469 290.07623291015625 C 280.2680969238281 288.05792236328125 278.96051025390625 286.04876708984375 277.6282958984375 284.04876708984375 C 277.6282958984375 286.23577880859375 277.6282958984375 288.36077880859375 277.6282958984375 290.42376708984375 C 277.6282958984375 292.48681640625 277.6282958984375 294.48779296875 277.6282958984375 296.42681884765625 C 277.6282958984375 298.3658447265625 277.6282958984375 300.242919921875 277.6282958984375 302.05792236328125 C 277.6282958984375 303.8729248046875 277.6282958984375 305.6259765625 277.6282958984375 307.31707763671875 C 277.6282958984375 309.0 277.6570739746094 310.6219482421875 277.71466064453125 312.18292236328125 C 277.772216796875 313.743896484375 277.85858154296875 315.243896484375 277.97369384765625 316.68292236328125 C 278.2039794921875 319.56097412109375 278.5493469238281 322.19512939453125 279.0098876953125 324.5853271484375 C 279.4868469238281 326.9755859375 279.9185791015625 329.1219482421875 280.30511474609375 331.0244140625 C 280.6916198730469 332.92681884765625 281.03289794921875 334.5853271484375 281.3289489746094 336.0 C 278.5493469238281 336.0 275.765625 336.0 272.977783203125 336.0 C 270.1899719238281 336.0 267.3980407714844 336.0 264.60198974609375 336.0 C 264.27301025390625 333.46337890625 263.9810791015625 330.8292236328125 263.72613525390625 328.0975341796875 C 263.4712219238281 325.3658447265625 263.2532958984375 322.53662109375 263.0723876953125 319.6097412109375 C 262.90789794921875 316.68292236328125 262.7845458984375 313.7723388671875 262.7023010253906 310.8780517578125 C 262.62005615234375 307.9837646484375 262.5789489746094 305.105712890625 262.5789489746094 302.243896484375 C 262.5789489746094 299.4959716796875 262.5789489746094 296.8211669921875 262.5789489746094 294.219482421875 C 262.5789489746094 291.617919921875 262.5789489746094 289.08941650390625 262.5789489746094 286.6341552734375 C 262.5789489746094 284.16259765625 262.6529541015625 281.8211669921875 262.8009948730469 279.6097412109375 C 262.94903564453125 277.39837646484375 263.1710510253906 275.31707763671875 263.46710205078125 273.3658447265625 C 263.76318359375 271.4146728515625 264.071533203125 269.6585693359375 264.39227294921875 268.0975341796875 C 264.7130126953125 266.53662109375 265.0460510253906 265.17071533203125 265.3914489746094 264.0 C 267.71051025390625 264.19512939453125 270.0337219238281 264.292724609375 272.36102294921875 264.292724609375 C 274.6883544921875 264.292724609375 277.0197448730469 264.19512939453125 279.35528564453125 264.0 C 280.25164794921875 265.07318115234375 281.2076416015625 266.28558349609375 282.2232666015625 267.63720703125 C 283.2388916015625 268.98883056640625 284.31414794921875 270.47967529296875 285.44903564453125 272.1097412109375 C 286.5838928222656 273.7398681640625 287.77838134765625 275.5091552734375 289.032470703125 277.417724609375 C 290.28662109375 279.32623291015625 291.600341796875 281.3740234375 292.97369384765625 283.56097412109375 C 294.3470458984375 285.74798583984375 295.74609375 288.09857177734375 297.17083740234375 290.61279296875 C 297.88323974609375 291.86993408203125 298.6020202636719 293.16796875 299.3272705078125 294.5068359375 C 300.052490234375 295.8458251953125 300.78411865234375 297.2255859375 301.522216796875 298.6463623046875 C 302.2602844238281 300.06707763671875 303.0047912597656 301.5286865234375 303.7557067871094 303.03125 C 304.50665283203125 304.5338134765625 305.26397705078125 306.0772705078125 306.02777099609375 307.66162109375 C 306.7915344238281 309.2459716796875 307.5617370605469 310.8712158203125 308.33837890625 312.537353515625 C 309.114990234375 314.2034912109375 309.8980407714844 315.91058349609375 310.6875 317.6585693359375 C 310.6875 314.96746826171875 310.6607666015625 312.38006591796875 310.6073303222656 309.8963623046875 C 310.55389404296875 307.41259765625 310.47369384765625 305.03253173828125 310.3667907714844 302.756103515625 C 310.2598876953125 300.47967529296875 310.126220703125 298.306884765625 309.96588134765625 296.23779296875 C 309.8055114746094 294.168701171875 309.618408203125 292.2032470703125 309.40460205078125 290.3414306640625 C 309.1907958984375 288.47967529296875 308.973876953125 286.7164306640625 308.75390625 285.05181884765625 C 308.533935546875 283.38720703125 308.31085205078125 281.8211669921875 308.084716796875 280.3536376953125 C 307.63238525390625 277.418701171875 307.16778564453125 274.8780517578125 306.6907958984375 272.731689453125 C 305.7697448730469 268.43902587890625 305.1447448730469 265.593505859375 304.8157958984375 264.19512939453125"/>
    <path stroke-width="0" fill="rgb(0, 0, 0)" opacity="1.0" d="M 386.9210205078125 264.19512939453125 C 389.98028564453125 264.19512939453125 393.01068115234375 264.19512939453125 396.0123291015625 264.19512939453125 C 399.0140380859375 264.19512939453125 401.98681640625 264.19512939453125 404.930908203125 264.19512939453125 C 405.3585205078125 265.7723388671875 405.7451171875 267.48779296875 406.0904541015625 269.3414306640625 C 406.43585205078125 271.19512939453125 406.7401123046875 273.18701171875 407.0032958984375 275.31707763671875 C 407.28289794921875 277.4471435546875 407.49261474609375 279.650390625 407.6324462890625 281.92681884765625 C 407.772216796875 284.2032470703125 407.84210205078125 286.5528564453125 407.84210205078125 288.9755859375 C 407.84210205078125 291.382080078125 407.84210205078125 293.792724609375 407.84210205078125 296.207275390625 C 407.84210205078125 298.6219482421875 407.84210205078125 301.0406494140625 407.84210205078125 303.46337890625 C 407.84210205078125 306.2601318359375 407.84210205078125 309.0406494140625 407.84210205078125 311.80487060546875 C 407.84210205078125 314.569091796875 407.84210205078125 317.31707763671875 407.84210205078125 320.04876708984375 C 407.84210205078125 322.780517578125 407.7105712890625 325.4755859375 407.4473876953125 328.1341552734375 C 407.1842041015625 330.792724609375 406.78948974609375 333.4146728515625 406.26318359375 336.0 C 403.28619384765625 336.0 400.2803955078125 336.0 397.24591064453125 336.0 C 395.7286376953125 336.0 394.20416259765625 336.0 392.6724853515625 336.0 C 391.140869140625 336.0 389.60198974609375 336.0 388.055908203125 336.0 C 386.94573974609375 333.47967529296875 385.8314208984375 331.0162353515625 384.7130126953125 328.6097412109375 C 383.5946044921875 326.2032470703125 382.4720458984375 323.8536376953125 381.34539794921875 321.56097412109375 C 380.21875 319.268310546875 379.0880126953125 317.03253173828125 377.953125 314.8536376953125 C 376.8182373046875 312.6748046875 375.6793212890625 310.5528564453125 374.53619384765625 308.48779296875 C 373.4013671875 306.4146728515625 372.2418212890625 304.3505859375 371.0576171875 302.2957763671875 C 369.87335205078125 300.2408447265625 368.66448974609375 298.19512939453125 367.430908203125 296.1585693359375 C 366.1973876953125 294.1219482421875 364.93914794921875 292.094482421875 363.65625 290.07623291015625 C 362.37335205078125 288.05792236328125 361.0657958984375 286.04876708984375 359.73358154296875 284.04876708984375 C 359.73358154296875 286.23577880859375 359.73358154296875 288.36077880859375 359.73358154296875 290.42376708984375 C 359.73358154296875 292.48681640625 359.73358154296875 294.48779296875 359.73358154296875 296.42681884765625 C 359.73358154296875 298.3658447265625 359.73358154296875 300.242919921875 359.73358154296875 302.05792236328125 C 359.73358154296875 303.8729248046875 359.73358154296875 305.6259765625 359.73358154296875 307.31707763671875 C 359.73358154296875 309.0 359.7623291015625 310.6219482421875 359.8199462890625 312.18292236328125 C 359.87744140625 313.743896484375 359.96380615234375 315.243896484375 360.0789794921875 316.68292236328125 C 360.3092041015625 319.56097412109375 360.65460205078125 322.19512939453125 361.1151123046875 324.5853271484375 C 361.59210205078125 326.9755859375 362.02386474609375 329.1219482421875 362.410400390625 331.0244140625 C 362.796875 332.92681884765625 363.13818359375 334.5853271484375 363.4342041015625 336.0 C 360.65460205078125 336.0 357.87091064453125 336.0 355.08306884765625 336.0 C 352.29522705078125 336.0 349.5032958984375 336.0 346.707275390625 336.0 C 346.3782958984375 333.46337890625 346.08636474609375 330.8292236328125 345.8314208984375 328.0975341796875 C 345.57647705078125 325.3658447265625 345.3585205078125 322.53662109375 345.1776123046875 319.6097412109375 C 345.01318359375 316.68292236328125 344.8897705078125 313.7723388671875 344.80755615234375 310.8780517578125 C 344.725341796875 307.9837646484375 344.6842041015625 305.105712890625 344.6842041015625 302.243896484375 C 344.6842041015625 299.4959716796875 344.6842041015625 296.8211669921875 344.6842041015625 294.219482421875 C 344.6842041015625 291.617919921875 344.6842041015625 289.08941650390625 344.6842041015625 286.6341552734375 C 344.6842041015625 284.16259765625 344.75823974609375 281.8211669921875 344.90625 279.6097412109375 C 345.0543212890625 277.39837646484375 345.27630615234375 275.31707763671875 345.5723876953125 273.3658447265625 C 345.868408203125 271.4146728515625 346.17681884765625 269.6585693359375 346.49755859375 268.0975341796875 C 346.8182373046875 266.53662109375 347.15130615234375 265.17071533203125 347.4967041015625 264.0 C 349.8157958984375 264.19512939453125 352.13897705078125 264.292724609375 354.46630859375 264.292724609375 C 356.7935791015625 264.292724609375 359.125 264.19512939453125 361.4605712890625 264.0 C 362.35693359375 265.07318115234375 363.31292724609375 266.28558349609375 364.32855224609375 267.63720703125 C 365.34417724609375 268.98883056640625 366.41943359375 270.47967529296875 367.5543212890625 272.1097412109375 C 368.68914794921875 273.7398681640625 369.8836669921875 275.5091552734375 371.13775634765625 277.417724609375 C 372.391845703125 279.32623291015625 373.70556640625 281.3740234375 375.0789794921875 283.56097412109375 C 376.45233154296875 285.74798583984375 377.85137939453125 288.09857177734375 379.276123046875 290.61279296875 C 379.988525390625 291.86993408203125 380.707275390625 293.16796875 381.4324951171875 294.5068359375 C 382.15771484375 295.8458251953125 382.889404296875 297.2255859375 383.62744140625 298.6463623046875 C 384.3656005859375 300.06707763671875 385.11004638671875 301.5286865234375 385.8609619140625 303.03125 C 386.6119384765625 304.5338134765625 387.3692626953125 306.0772705078125 388.133056640625 307.66162109375 C 388.89678955078125 309.2459716796875 389.6669921875 310.8712158203125 390.443603515625 312.537353515625 C 391.22021484375 314.2034912109375 392.0032958984375 315.91058349609375 392.79278564453125 317.6585693359375 C 392.79278564453125 314.96746826171875 392.76605224609375 312.38006591796875 392.71258544921875 309.8963623046875 C 392.65911865234375 307.41259765625 392.5789794921875 305.03253173828125 392.4720458984375 302.756103515625 C 392.3651123046875 300.47967529296875 392.23150634765625 298.306884765625 392.0711669921875 296.23779296875 C 391.9107666015625 294.168701171875 391.72369384765625 292.2032470703125 391.5098876953125 290.3414306640625 C 391.2960205078125 288.47967529296875 391.07916259765625 286.7164306640625 390.85919189453125 285.05181884765625 C 390.63916015625 283.38720703125 390.4161376953125 281.8211669921875 390.18994140625 280.3536376953125 C 389.7376708984375 277.418701171875 389.2730712890625 274.8780517578125 388.7960205078125 272.731689453125 C 387.875 268.43902587890625 387.25 265.593505859375 386.9210205078125 264.19512939453125"/>
    <path stroke-width="0" fill="rgb(0, 0, 0)" opacity="1.0" d="M 462.3157958984375 336.0 C 458.59869384765625 336.0 454.8651123046875 336.0 451.1151123046875 336.0 C 449.2401123046875 336.0 447.36102294921875 336.0 445.477783203125 336.0 C 443.5946044921875 336.0 441.707275390625 336.0 439.8157958984375 336.0 C 439.75 335.51220703125 439.66778564453125 334.92681884765625 439.569091796875 334.243896484375 C 439.47039794921875 333.5284423828125 439.4210205078125 332.68292236328125 439.4210205078125 331.707275390625 C 439.4210205078125 328.943115234375 439.832275390625 326.21142578125 440.65460205078125 323.51220703125 C 441.47698974609375 320.81298828125 442.4473876953125 318.35772705078125 443.5657958984375 316.1463623046875 C 444.7171630859375 313.9349365234375 445.72039794921875 312.19512939453125 446.57568359375 310.92681884765625 C 444.1085205078125 309.0406494140625 441.54278564453125 306.894287109375 438.8782958984375 304.48779296875 C 437.5625 303.268310546875 436.2796630859375 301.91058349609375 435.02960205078125 300.4146728515625 C 433.77960205078125 298.918701171875 432.5625 297.2845458984375 431.3782958984375 295.51220703125 C 430.2105712890625 293.7398681640625 429.15789794921875 291.77642822265625 428.22039794921875 289.6219482421875 C 427.28289794921875 287.46746826171875 426.4605712890625 285.1219482421875 425.7532958984375 282.5853271484375 C 425.0460205078125 280.04876708984375 424.515625 277.24798583984375 424.1619873046875 274.18292236328125 C 423.80841064453125 271.117919921875 423.631591796875 267.78863525390625 423.631591796875 264.19512939453125 C 426.85528564453125 264.19512939453125 430.0460205078125 264.19512939453125 433.2039794921875 264.19512939453125 C 436.36181640625 264.19512939453125 439.48681640625 264.19512939453125 442.5789794921875 264.19512939453125 C 442.5789794921875 265.2032470703125 442.5789794921875 266.82928466796875 442.5789794921875 269.07318115234375 C 442.5789794921875 271.31707763671875 442.5789794921875 273.70733642578125 442.5789794921875 276.243896484375 C 442.5789794921875 279.07318115234375 442.8873291015625 281.72357177734375 443.504150390625 284.19512939453125 C 444.12091064453125 286.6666259765625 445.0460205078125 288.9593505859375 446.27960205078125 291.07318115234375 C 447.5296630859375 293.18701171875 448.9317626953125 295.0772705078125 450.48602294921875 296.743896484375 C 452.040283203125 298.41058349609375 453.7467041015625 299.8536376953125 455.60528564453125 301.07318115234375 C 457.41448974609375 299.1219482421875 458.993408203125 296.5853271484375 460.3421630859375 293.46337890625 C 461.6907958984375 290.3414306640625 462.743408203125 287.0244140625 463.5 283.51220703125 C 464.28948974609375 279.96746826171875 464.6842041015625 276.6666259765625 464.6842041015625 273.6097412109375 C 464.6842041015625 271.62603759765625 464.6513671875 269.9837646484375 464.5855712890625 268.68292236328125 C 464.519775390625 267.349609375 464.4210205078125 265.8536376953125 464.28948974609375 264.19512939453125 C 467.0032958984375 264.19512939453125 469.69244384765625 264.19512939453125 472.35693359375 264.19512939453125 C 475.0213623046875 264.19512939453125 477.66119384765625 264.19512939453125 480.2763671875 264.19512939453125 C 480.3421630859375 264.650390625 480.3914794921875 265.13818359375 480.42431640625 265.6585693359375 C 480.457275390625 266.1463623046875 480.47369384765625 266.7967529296875 480.47369384765625 267.6097412109375 C 480.47369384765625 270.11383056640625 480.3421630859375 272.47967529296875 480.0789794921875 274.70733642578125 C 479.8157958984375 276.9349365234375 479.4210205078125 279.0244140625 478.894775390625 280.9755859375 C 478.368408203125 282.92681884765625 477.772216796875 284.792724609375 477.1060791015625 286.57318115234375 C 476.43994140625 288.3536376953125 475.7039794921875 290.04876708984375 474.8980712890625 291.6585693359375 C 473.319091796875 294.84552001953125 471.657958984375 297.9349365234375 469.91448974609375 300.92681884765625 C 468.46710205078125 303.4959716796875 467.10198974609375 306.0975341796875 465.819091796875 308.731689453125 C 464.53619384765625 311.3333740234375 463.5 314.0975341796875 462.7105712890625 317.0244140625 C 461.9210205078125 319.95123291015625 461.5263671875 323.219482421875 461.5263671875 326.8292236328125 C 461.5263671875 328.2276611328125 461.5921630859375 329.64227294921875 461.72369384765625 331.07318115234375 C 461.88818359375 332.4715576171875 462.0855712890625 334.11383056640625 462.3157958984375 336.0"/>
  </g>
</svg>
