<?xml version="1.0" encoding="utf-8"?>
<svg xmlns="http://www.w3.org/2000/svg" xmlns:ev="http://www.w3.org/2001/xml-events" xmlns:xlink="http://www.w3.org/1999/xlink" version="1.1" baseProfile="full" width="7296.0" height="1476.0" viewBox="192.0 -1476.0 7296.0 1476.0">
<defs/>
<g><path d="M 1042.000000 -835.000000 C 1148.666667 -777.666667 1225.666667 -717.333333 1273.000000 -654.000000 C 1320.333333 -590.666667 1344.000000 -516.333333 1344.000000 -431.000000 C 1344.000000 -333.000000 1317.000000 -252.333333 1263.000000 -189.000000 C 1209.666667 -125.666667 1124.000000 -78.333333 1006.000000 -47.000000 C 888.000000 -15.666667 732.666667 0.000000 540.000000 0.000000 C 494.666667 0.000000 446.666667 0.000000 396.000000 0.000000 C 345.333333 0.000000 288.000000 0.000000 224.000000 0.000000 C 202.666667 -123.333333 192.000000 -237.333333 192.000000 -342.000000 C 192.000000 -447.333333 192.000000 -548.333333 192.000000 -645.000000 C 192.000000 -790.333333 197.000000 -929.666667 207.000000 -1063.000000 C 217.000000 -1196.333333 232.000000 -1332.666667 252.000000 -1472.000000 C 317.333333 -1472.000000 384.333333 -1472.000000 453.000000 -1472.000000 C 521.666667 -1472.000000 591.333333 -1472.000000 662.000000 -1472.000000 C 792.000000 -1472.000000 903.000000 -1464.000000 995.000000 -1448.000000 C 1087.666667 -1432.666667 1158.333333 -1403.666667 1207.000000 -1361.000000 C 1255.666667 -1318.333333 1280.000000 -1255.666667 1280.000000 -1173.000000 C 1280.000000 -1098.333333 1258.000000 -1033.333333 1214.000000 -978.000000 C 1170.000000 -923.333333 1112.666667 -875.666667 1042.000000 -835.000000z M 542.000000 -829.000000 C 596.666667 -829.000000 649.333333 -836.666667 700.000000 -852.000000 C 750.666667 -867.333333 796.666667 -888.333333 838.000000 -915.000000 C 880.000000 -941.666667 913.333333 -972.333333 938.000000 -1007.000000 C 962.666667 -1041.666667 975.000000 -1078.666667 975.000000 -1118.000000 C 975.000000 -1166.666667 948.666667 -1199.000000 896.000000 -1215.000000 C 844.000000 -1231.666667 782.333333 -1240.000000 711.000000 -1240.000000 C 671.000000 -1240.000000 634.333333 -1238.000000 601.000000 -1234.000000 C 568.333333 -1230.000000 545.000000 -1222.000000 531.000000 -1210.000000 C 521.000000 -1200.666667 512.666667 -1179.000000 506.000000 -1145.000000 C 500.000000 -1111.666667 497.000000 -1072.333333 497.000000 -1027.000000 C 497.000000 -981.666667 497.000000 -936.000000 497.000000 -890.000000 C 497.000000 -870.666667 500.000000 -855.666667 506.000000 -845.000000 C 512.666667 -834.333333 524.666667 -829.000000 542.000000 -829.000000z M 697.000000 -232.000000 C 756.333333 -232.000000 812.000000 -239.000000 864.000000 -253.000000 C 916.000000 -267.000000 958.000000 -290.333333 990.000000 -323.000000 C 1022.666667 -355.666667 1039.000000 -398.333333 1039.000000 -451.000000 C 1039.000000 -492.333333 1028.000000 -530.333333 1006.000000 -565.000000 C 984.666667 -600.333333 957.333333 -628.000000 924.000000 -648.000000 C 891.333333 -668.666667 858.333333 -679.000000 825.000000 -679.000000 C 801.666667 -679.000000 768.666667 -674.333333 726.000000 -665.000000 C 683.333333 -656.333333 638.666667 -643.666667 592.000000 -627.000000 C 551.333333 -611.666667 525.333333 -594.000000 514.000000 -574.000000 C 502.666667 -554.666667 497.000000 -527.333333 497.000000 -492.000000 C 497.000000 -435.333333 500.000000 -387.333333 506.000000 -348.000000 C 512.666667 -308.666667 525.333333 -280.000000 544.000000 -262.000000 C 558.000000 -250.000000 574.333333 -242.000000 593.000000 -238.000000 C 611.666667 -234.000000 646.333333 -232.000000 697.000000 -232.000000z "/>
</g>
<g><path d="M 2364.000000 -1472.000000 C 2414.333333 -1472.000000 2464.500000 -1472.000000 2514.500000 -1472.000000 C 2564.500000 -1472.000000 2614.333333 -1472.000000 2664.000000 -1472.000000 C 2676.000000 -1427.333333 2687.333333 -1365.666667 2698.000000 -1287.000000 C 2703.333333 -1248.000000 2708.250000 -1206.000000 2712.750000 -1161.000000 C 2717.250000 -1116.000000 2721.333333 -1068.000000 2725.000000 -1017.000000 C 2729.000000 -966.333333 2732.000000 -913.416667 2734.000000 -858.250000 C 2736.000000 -803.083333 2737.000000 -745.666667 2737.000000 -686.000000 C 2737.000000 -616.000000 2732.833333 -550.666667 2724.500000 -490.000000 C 2716.166667 -429.333333 2703.666667 -373.333333 2687.000000 -322.000000 C 2670.666667 -271.000000 2648.083333 -225.666667 2619.250000 -186.000000 C 2590.416667 -146.333333 2555.333333 -112.333333 2514.000000 -84.000000 C 2472.666667 -56.000000 2423.166667 -35.000000 2365.500000 -21.000000 C 2307.833333 -7.000000 2242.000000 0.000000 2168.000000 0.000000 C 2073.333333 0.000000 1990.500000 -13.750000 1919.500000 -41.250000 C 1848.500000 -68.750000 1789.333333 -110.000000 1742.000000 -165.000000 C 1694.666667 -220.000000 1659.166667 -289.333333 1635.500000 -373.000000 C 1623.666667 -414.833333 1614.791667 -460.250000 1608.875000 -509.250000 C 1602.958333 -558.250000 1600.000000 -610.833333 1600.000000 -667.000000 C 1600.000000 -722.000000 1601.083333 -775.916667 1603.250000 -828.750000 C 1605.416667 -881.583333 1608.666667 -933.333333 1613.000000 -984.000000 C 1617.666667 -1035.000000 1622.750000 -1083.750000 1628.250000 -1130.250000 C 1633.750000 -1176.750000 1639.666667 -1221.000000 1646.000000 -1263.000000 C 1658.666667 -1347.000000 1671.000000 -1416.666667 1683.000000 -1472.000000 C 1736.000000 -1472.000000 1789.083333 -1472.000000 1842.250000 -1472.000000 C 1895.416667 -1472.000000 1948.666667 -1472.000000 2002.000000 -1472.000000 C 1998.000000 -1450.000000 1991.333333 -1412.333333 1982.000000 -1359.000000 C 1973.333333 -1306.333333 1964.000000 -1243.666667 1954.000000 -1171.000000 C 1944.000000 -1099.000000 1935.666667 -1021.000000 1929.000000 -937.000000 C 1923.000000 -853.666667 1920.000000 -769.333333 1920.000000 -684.000000 C 1920.000000 -606.333333 1925.333333 -539.916667 1936.000000 -484.750000 C 1946.666667 -429.583333 1962.666667 -385.666667 1984.000000 -353.000000 C 2027.333333 -288.333333 2089.000000 -256.000000 2169.000000 -256.000000 C 2233.000000 -256.000000 2284.000000 -269.333333 2322.000000 -296.000000 C 2360.000000 -323.333333 2387.666667 -368.666667 2405.000000 -432.000000 C 2423.000000 -496.000000 2432.000000 -581.333333 2432.000000 -688.000000 C 2432.000000 -750.333333 2430.750000 -810.666667 2428.250000 -869.000000 C 2425.750000 -927.333333 2422.000000 -983.666667 2417.000000 -1038.000000 C 2412.333333 -1092.333333 2407.416667 -1142.666667 2402.250000 -1189.000000 C 2397.083333 -1235.333333 2391.666667 -1277.666667 2386.000000 -1316.000000 C 2375.333333 -1392.666667 2368.000000 -1444.666667 2364.000000 -1472.000000z "/>
</g>
<g><path d="M 3928.000000 -1472.000000 C 3990.000000 -1472.000000 4051.416667 -1472.000000 4112.250000 -1472.000000 C 4173.083333 -1472.000000 4233.333333 -1472.000000 4293.000000 -1472.000000 C 4301.666667 -1439.666667 4309.500000 -1404.500000 4316.500000 -1366.500000 C 4323.500000 -1328.500000 4329.666667 -1287.666667 4335.000000 -1244.000000 C 4340.666667 -1200.333333 4344.916667 -1155.166667 4347.750000 -1108.500000 C 4350.583333 -1061.833333 4352.000000 -1013.666667 4352.000000 -964.000000 C 4352.000000 -914.666667 4352.000000 -865.250000 4352.000000 -815.750000 C 4352.000000 -766.250000 4352.000000 -716.666667 4352.000000 -667.000000 C 4352.000000 -609.666667 4352.000000 -552.666667 4352.000000 -496.000000 C 4352.000000 -439.333333 4352.000000 -383.000000 4352.000000 -327.000000 C 4352.000000 -271.000000 4349.333333 -215.750000 4344.000000 -161.250000 C 4338.666667 -106.750000 4330.666667 -53.000000 4320.000000 0.000000 C 4259.666667 0.000000 4198.750000 0.000000 4137.250000 0.000000 C 4106.500000 0.000000 4075.604167 0.000000 4044.562500 0.000000 C 4013.520833 0.000000 3982.333333 0.000000 3951.000000 0.000000 C 3928.500000 -51.666667 3905.916667 -102.166667 3883.250000 -151.500000 C 3860.583333 -200.833333 3837.833333 -249.000000 3815.000000 -296.000000 C 3792.166667 -343.000000 3769.250000 -388.833333 3746.250000 -433.500000 C 3723.250000 -478.166667 3700.166667 -521.666667 3677.000000 -564.000000 C 3654.000000 -606.500000 3630.500000 -648.812500 3606.500000 -690.937500 C 3582.500000 -733.062500 3558.000000 -775.000000 3533.000000 -816.750000 C 3508.000000 -858.500000 3482.500000 -900.062500 3456.500000 -941.437500 C 3430.500000 -982.812500 3404.000000 -1024.000000 3377.000000 -1065.000000 C 3377.000000 -1020.166667 3377.000000 -976.604167 3377.000000 -934.312500 C 3377.000000 -892.020833 3377.000000 -851.000000 3377.000000 -811.250000 C 3377.000000 -771.500000 3377.000000 -733.020833 3377.000000 -695.812500 C 3377.000000 -658.604167 3377.000000 -622.666667 3377.000000 -588.000000 C 3377.000000 -553.500000 3377.583333 -520.250000 3378.750000 -488.250000 C 3379.916667 -456.250000 3381.666667 -425.500000 3384.000000 -396.000000 C 3388.666667 -337.000000 3395.666667 -283.000000 3405.000000 -234.000000 C 3414.666667 -185.000000 3423.416667 -141.000000 3431.250000 -102.000000 C 3439.083333 -63.000000 3446.000000 -29.000000 3452.000000 0.000000 C 3395.666667 0.000000 3339.250000 0.000000 3282.750000 0.000000 C 3226.250000 0.000000 3169.666667 0.000000 3113.000000 0.000000 C 3106.333333 -52.000000 3100.416667 -106.000000 3095.250000 -162.000000 C 3090.083333 -218.000000 3085.666667 -276.000000 3082.000000 -336.000000 C 3078.666667 -396.000000 3076.166667 -455.666667 3074.500000 -515.000000 C 3072.833333 -574.333333 3072.000000 -633.333333 3072.000000 -692.000000 C 3072.000000 -748.333333 3072.000000 -803.166667 3072.000000 -856.500000 C 3072.000000 -909.833333 3072.000000 -961.666667 3072.000000 -1012.000000 C 3072.000000 -1062.666667 3073.500000 -1110.666667 3076.500000 -1156.000000 C 3079.500000 -1201.333333 3084.000000 -1244.000000 3090.000000 -1284.000000 C 3096.000000 -1324.000000 3102.250000 -1360.000000 3108.750000 -1392.000000 C 3115.250000 -1424.000000 3122.000000 -1452.000000 3129.000000 -1476.000000 C 3176.000000 -1472.000000 3223.083333 -1470.000000 3270.250000 -1470.000000 C 3317.416667 -1470.000000 3364.666667 -1472.000000 3412.000000 -1476.000000 C 3430.166667 -1454.000000 3449.541667 -1429.145833 3470.125000 -1401.437500 C 3490.708333 -1373.729167 3512.500000 -1343.166667 3535.500000 -1309.750000 C 3558.500000 -1276.333333 3582.708333 -1240.062500 3608.125000 -1200.937500 C 3633.541667 -1161.812500 3660.166667 -1119.833333 3688.000000 -1075.000000 C 3715.833333 -1030.166667 3744.187500 -981.979167 3773.062500 -930.437500 C 3787.500000 -904.666667 3802.067708 -878.057292 3816.765625 -850.609375 C 3831.463542 -823.161458 3846.291667 -794.875000 3861.250000 -765.750000 C 3876.208333 -736.625000 3891.296875 -706.661458 3906.515625 -675.859375 C 3921.734375 -645.057292 3937.083333 -613.416667 3952.562500 -580.937500 C 3968.041667 -548.458333 3983.651042 -515.140625 3999.390625 -480.984375 C 4015.130208 -446.828125 4031.000000 -411.833333 4047.000000 -376.000000 C 4047.000000 -431.166667 4046.458333 -484.208333 4045.375000 -535.125000 C 4044.291667 -586.041667 4042.666667 -634.833333 4040.500000 -681.500000 C 4038.333333 -728.166667 4035.625000 -772.708333 4032.375000 -815.125000 C 4029.125000 -857.541667 4025.333333 -897.833333 4021.000000 -936.000000 C 4016.666667 -974.166667 4012.270833 -1010.312500 4007.812500 -1044.437500 C 4003.354167 -1078.562500 3998.833333 -1110.666667 3994.250000 -1140.750000 C 3985.083333 -1200.916667 3975.666667 -1253.000000 3966.000000 -1297.000000 C 3947.333333 -1385.000000 3934.666667 -1443.333333 3928.000000 -1472.000000z "/>
</g>
<g><path d="M 5592.000000 -1472.000000 C 5654.000000 -1472.000000 5715.416667 -1472.000000 5776.250000 -1472.000000 C 5837.083333 -1472.000000 5897.333333 -1472.000000 5957.000000 -1472.000000 C 5965.666667 -1439.666667 5973.500000 -1404.500000 5980.500000 -1366.500000 C 5987.500000 -1328.500000 5993.666667 -1287.666667 5999.000000 -1244.000000 C 6004.666667 -1200.333333 6008.916667 -1155.166667 6011.750000 -1108.500000 C 6014.583333 -1061.833333 6016.000000 -1013.666667 6016.000000 -964.000000 C 6016.000000 -914.666667 6016.000000 -865.250000 6016.000000 -815.750000 C 6016.000000 -766.250000 6016.000000 -716.666667 6016.000000 -667.000000 C 6016.000000 -609.666667 6016.000000 -552.666667 6016.000000 -496.000000 C 6016.000000 -439.333333 6016.000000 -383.000000 6016.000000 -327.000000 C 6016.000000 -271.000000 6013.333333 -215.750000 6008.000000 -161.250000 C 6002.666667 -106.750000 5994.666667 -53.000000 5984.000000 0.000000 C 5923.666667 0.000000 5862.750000 0.000000 5801.250000 0.000000 C 5770.500000 0.000000 5739.604167 0.000000 5708.562500 0.000000 C 5677.520833 0.000000 5646.333333 0.000000 5615.000000 0.000000 C 5592.500000 -51.666667 5569.916667 -102.166667 5547.250000 -151.500000 C 5524.583333 -200.833333 5501.833333 -249.000000 5479.000000 -296.000000 C 5456.166667 -343.000000 5433.250000 -388.833333 5410.250000 -433.500000 C 5387.250000 -478.166667 5364.166667 -521.666667 5341.000000 -564.000000 C 5318.000000 -606.500000 5294.500000 -648.812500 5270.500000 -690.937500 C 5246.500000 -733.062500 5222.000000 -775.000000 5197.000000 -816.750000 C 5172.000000 -858.500000 5146.500000 -900.062500 5120.500000 -941.437500 C 5094.500000 -982.812500 5068.000000 -1024.000000 5041.000000 -1065.000000 C 5041.000000 -1020.166667 5041.000000 -976.604167 5041.000000 -934.312500 C 5041.000000 -892.020833 5041.000000 -851.000000 5041.000000 -811.250000 C 5041.000000 -771.500000 5041.000000 -733.020833 5041.000000 -695.812500 C 5041.000000 -658.604167 5041.000000 -622.666667 5041.000000 -588.000000 C 5041.000000 -553.500000 5041.583333 -520.250000 5042.750000 -488.250000 C 5043.916667 -456.250000 5045.666667 -425.500000 5048.000000 -396.000000 C 5052.666667 -337.000000 5059.666667 -283.000000 5069.000000 -234.000000 C 5078.666667 -185.000000 5087.416667 -141.000000 5095.250000 -102.000000 C 5103.083333 -63.000000 5110.000000 -29.000000 5116.000000 0.000000 C 5059.666667 0.000000 5003.250000 0.000000 4946.750000 0.000000 C 4890.250000 0.000000 4833.666667 0.000000 4777.000000 0.000000 C 4770.333333 -52.000000 4764.416667 -106.000000 4759.250000 -162.000000 C 4754.083333 -218.000000 4749.666667 -276.000000 4746.000000 -336.000000 C 4742.666667 -396.000000 4740.166667 -455.666667 4738.500000 -515.000000 C 4736.833333 -574.333333 4736.000000 -633.333333 4736.000000 -692.000000 C 4736.000000 -748.333333 4736.000000 -803.166667 4736.000000 -856.500000 C 4736.000000 -909.833333 4736.000000 -961.666667 4736.000000 -1012.000000 C 4736.000000 -1062.666667 4737.500000 -1110.666667 4740.500000 -1156.000000 C 4743.500000 -1201.333333 4748.000000 -1244.000000 4754.000000 -1284.000000 C 4760.000000 -1324.000000 4766.250000 -1360.000000 4772.750000 -1392.000000 C 4779.250000 -1424.000000 4786.000000 -1452.000000 4793.000000 -1476.000000 C 4840.000000 -1472.000000 4887.083333 -1470.000000 4934.250000 -1470.000000 C 4981.416667 -1470.000000 5028.666667 -1472.000000 5076.000000 -1476.000000 C 5094.166667 -1454.000000 5113.541667 -1429.145833 5134.125000 -1401.437500 C 5154.708333 -1373.729167 5176.500000 -1343.166667 5199.500000 -1309.750000 C 5222.500000 -1276.333333 5246.708333 -1240.062500 5272.125000 -1200.937500 C 5297.541667 -1161.812500 5324.166667 -1119.833333 5352.000000 -1075.000000 C 5379.833333 -1030.166667 5408.187500 -981.979167 5437.062500 -930.437500 C 5451.500000 -904.666667 5466.067708 -878.057292 5480.765625 -850.609375 C 5495.463542 -823.161458 5510.291667 -794.875000 5525.250000 -765.750000 C 5540.208333 -736.625000 5555.296875 -706.661458 5570.515625 -675.859375 C 5585.734375 -645.057292 5601.083333 -613.416667 5616.562500 -580.937500 C 5632.041667 -548.458333 5647.651042 -515.140625 5663.390625 -480.984375 C 5679.130208 -446.828125 5695.000000 -411.833333 5711.000000 -376.000000 C 5711.000000 -431.166667 5710.458333 -484.208333 5709.375000 -535.125000 C 5708.291667 -586.041667 5706.666667 -634.833333 5704.500000 -681.500000 C 5702.333333 -728.166667 5699.625000 -772.708333 5696.375000 -815.125000 C 5693.125000 -857.541667 5689.333333 -897.833333 5685.000000 -936.000000 C 5680.666667 -974.166667 5676.270833 -1010.312500 5671.812500 -1044.437500 C 5667.354167 -1078.562500 5662.833333 -1110.666667 5658.250000 -1140.750000 C 5649.083333 -1200.916667 5639.666667 -1253.000000 5630.000000 -1297.000000 C 5611.333333 -1385.000000 5598.666667 -1443.333333 5592.000000 -1472.000000z "/>
</g>
<g><path d="M 7120.000000 0.000000 C 7044.666667 0.000000 6969.000000 0.000000 6893.000000 0.000000 C 6855.000000 0.000000 6816.916667 0.000000 6778.750000 0.000000 C 6740.583333 0.000000 6702.333333 0.000000 6664.000000 0.000000 C 6662.666667 -10.000000 6661.000000 -22.000000 6659.000000 -36.000000 C 6657.000000 -50.666667 6656.000000 -68.000000 6656.000000 -88.000000 C 6656.000000 -144.666667 6664.333333 -200.666667 6681.000000 -256.000000 C 6697.666667 -311.333333 6717.333333 -361.666667 6740.000000 -407.000000 C 6763.333333 -452.333333 6783.666667 -488.000000 6801.000000 -514.000000 C 6751.000000 -552.666667 6699.000000 -596.666667 6645.000000 -646.000000 C 6618.333333 -671.000000 6592.333333 -698.833333 6567.000000 -729.500000 C 6541.666667 -760.166667 6517.000000 -793.666667 6493.000000 -830.000000 C 6469.333333 -866.333333 6448.000000 -906.583333 6429.000000 -950.750000 C 6410.000000 -994.916667 6393.333333 -1043.000000 6379.000000 -1095.000000 C 6364.666667 -1147.000000 6353.916667 -1204.416667 6346.750000 -1267.250000 C 6339.583333 -1330.083333 6336.000000 -1398.333333 6336.000000 -1472.000000 C 6401.333333 -1472.000000 6466.000000 -1472.000000 6530.000000 -1472.000000 C 6594.000000 -1472.000000 6657.333333 -1472.000000 6720.000000 -1472.000000 C 6720.000000 -1451.333333 6720.000000 -1418.000000 6720.000000 -1372.000000 C 6720.000000 -1326.000000 6720.000000 -1277.000000 6720.000000 -1225.000000 C 6720.000000 -1167.000000 6726.250000 -1112.666667 6738.750000 -1062.000000 C 6751.250000 -1011.333333 6770.000000 -964.333333 6795.000000 -921.000000 C 6820.333333 -877.666667 6848.750000 -838.916667 6880.250000 -804.750000 C 6911.750000 -770.583333 6946.333333 -741.000000 6984.000000 -716.000000 C 7020.666667 -756.000000 7052.666667 -808.000000 7080.000000 -872.000000 C 7107.333333 -936.000000 7128.666667 -1004.000000 7144.000000 -1076.000000 C 7160.000000 -1148.666667 7168.000000 -1216.333333 7168.000000 -1279.000000 C 7168.000000 -1319.666667 7167.333333 -1353.333333 7166.000000 -1380.000000 C 7164.666667 -1407.333333 7162.666667 -1438.000000 7160.000000 -1472.000000 C 7215.000000 -1472.000000 7269.500000 -1472.000000 7323.500000 -1472.000000 C 7377.500000 -1472.000000 7431.000000 -1472.000000 7484.000000 -1472.000000 C 7485.333333 -1462.666667 7486.333333 -1452.666667 7487.000000 -1442.000000 C 7487.666667 -1432.000000 7488.000000 -1418.666667 7488.000000 -1402.000000 C 7488.000000 -1350.666667 7485.333333 -1302.166667 7480.000000 -1256.500000 C 7474.666667 -1210.833333 7466.666667 -1168.000000 7456.000000 -1128.000000 C 7445.333333 -1088.000000 7433.250000 -1049.750000 7419.750000 -1013.250000 C 7406.250000 -976.750000 7391.333333 -942.000000 7375.000000 -909.000000 C 7343.000000 -843.666667 7309.333333 -780.333333 7274.000000 -719.000000 C 7244.666667 -666.333333 7217.000000 -613.000000 7191.000000 -559.000000 C 7165.000000 -505.666667 7144.000000 -449.000000 7128.000000 -389.000000 C 7112.000000 -329.000000 7104.000000 -262.000000 7104.000000 -188.000000 C 7104.000000 -159.333333 7105.333333 -130.333333 7108.000000 -101.000000 C 7111.333333 -72.333333 7115.333333 -38.666667 7120.000000 0.000000z "/>
</g>
</svg>
