<?xml version="1.0" encoding="utf-8"?>
<svg xmlns="http://www.w3.org/2000/svg" xmlns:ev="http://www.w3.org/2001/xml-events" xmlns:xlink="http://www.w3.org/1999/xlink" version="1.1" baseProfile="full" width="7296.0" height="1476.0" viewBox="192.0 -1476.0 7296.0 1476.0">
<defs/>
<g><path d="M 7120.000000 0.000000 C 7044.666667 0.000000 6969.000000 0.000000 6893.000000 0.000000 C 6855.000000 0.000000 6816.916667 0.000000 6778.750000 0.000000 C 6740.583333 0.000000 6702.333333 0.000000 6664.000000 0.000000 C 6662.666667 -10.000000 6661.000000 -22.000000 6659.000000 -36.000000 C 6657.000000 -50.666667 6656.000000 -68.000000 6656.000000 -88.000000 C 6656.000000 -144.666667 6664.333333 -200.666667 6681.000000 -256.000000 C 6697.666667 -311.333333 6717.333333 -361.666667 6740.000000 -407.000000 C 6763.333333 -452.333333 6783.666667 -488.000000 6801.000000 -514.000000 C 6751.000000 -552.666667 6699.000000 -596.666667 6645.000000 -646.000000 C 6618.333333 -671.000000 6592.333333 -698.833333 6567.000000 -729.500000 C 6541.666667 -760.166667 6517.000000 -793.666667 6493.000000 -830.000000 C 6469.333333 -866.333333 6448.000000 -906.583333 6429.000000 -950.750000 C 6410.000000 -994.916667 6393.333333 -1043.000000 6379.000000 -1095.000000 C 6364.666667 -1147.000000 6353.916667 -1204.416667 6346.750000 -1267.250000 C 6339.583333 -1330.083333 6336.000000 -1398.333333 6336.000000 -1472.000000 C 6401.333333 -1472.000000 6466.000000 -1472.000000 6530.000000 -1472.000000 C 6594.000000 -1472.000000 6657.333333 -1472.000000 6720.000000 -1472.000000 C 6720.000000 -1451.333333 6720.000000 -1418.000000 6720.000000 -1372.000000 C 6720.000000 -1326.000000 6720.000000 -1277.000000 6720.000000 -1225.000000 C 6720.000000 -1167.000000 6726.250000 -1112.666667 6738.750000 -1062.000000 C 6751.250000 -1011.333333 6770.000000 -964.333333 6795.000000 -921.000000 C 6820.333333 -877.666667 6848.750000 -838.916667 6880.250000 -804.750000 C 6911.750000 -770.583333 6946.333333 -741.000000 6984.000000 -716.000000 C 7020.666667 -756.000000 7052.666667 -808.000000 7080.000000 -872.000000 C 7107.333333 -936.000000 7128.666667 -1004.000000 7144.000000 -1076.000000 C 7160.000000 -1148.666667 7168.000000 -1216.333333 7168.000000 -1279.000000 C 7168.000000 -1319.666667 7167.333333 -1353.333333 7166.000000 -1380.000000 C 7164.666667 -1407.333333 7162.666667 -1438.000000 7160.000000 -1472.000000 C 7215.000000 -1472.000000 7269.500000 -1472.000000 7323.500000 -1472.000000 C 7377.500000 -1472.000000 7431.000000 -1472.000000 7484.000000 -1472.000000 C 7485.333333 -1462.666667 7486.333333 -1452.666667 7487.000000 -1442.000000 C 7487.666667 -1432.000000 7488.000000 -1418.666667 7488.000000 -1402.000000 C 7488.000000 -1350.666667 7485.333333 -1302.166667 7480.000000 -1256.500000 C 7474.666667 -1210.833333 7466.666667 -1168.000000 7456.000000 -1128.000000 C 7445.333333 -1088.000000 7433.250000 -1049.750000 7419.750000 -1013.250000 C 7406.250000 -976.750000 7391.333333 -942.000000 7375.000000 -909.000000 C 7343.000000 -843.666667 7309.333333 -780.333333 7274.000000 -719.000000 C 7244.666667 -666.333333 7217.000000 -613.000000 7191.000000 -559.000000 C 7165.000000 -505.666667 7144.000000 -449.000000 7128.000000 -389.000000 C 7112.000000 -329.000000 7104.000000 -262.000000 7104.000000 -188.000000 C 7104.000000 -159.333333 7105.333333 -130.333333 7108.000000 -101.000000 C 7111.333333 -72.333333 7115.333333 -38.666667 7120.000000 0.000000z "/>
</g></svg>
