<?xml version="1.0" encoding="utf-8"?>
<svg xmlns="http://www.w3.org/2000/svg" xmlns:ev="http://www.w3.org/2001/xml-events" xmlns:xlink="http://www.w3.org/1999/xlink" version="1.1" baseProfile="full" width="7296.0" height="1476.0" viewBox="192.0 -1476.0 7296.0 1476.0">
<defs/>
<g><path d="M 2364.000000 -1472.000000 C 2414.333333 -1472.000000 2464.500000 -1472.000000 2514.500000 -1472.000000 C 2564.500000 -1472.000000 2614.333333 -1472.000000 2664.000000 -1472.000000 C 2676.000000 -1427.333333 2687.333333 -1365.666667 2698.000000 -1287.000000 C 2703.333333 -1248.000000 2708.250000 -1206.000000 2712.750000 -1161.000000 C 2717.250000 -1116.000000 2721.333333 -1068.000000 2725.000000 -1017.000000 C 2729.000000 -966.333333 2732.000000 -913.416667 2734.000000 -858.250000 C 2736.000000 -803.083333 2737.000000 -745.666667 2737.000000 -686.000000 C 2737.000000 -616.000000 2732.833333 -550.666667 2724.500000 -490.000000 C 2716.166667 -429.333333 2703.666667 -373.333333 2687.000000 -322.000000 C 2670.666667 -271.000000 2648.083333 -225.666667 2619.250000 -186.000000 C 2590.416667 -146.333333 2555.333333 -112.333333 2514.000000 -84.000000 C 2472.666667 -56.000000 2423.166667 -35.000000 2365.500000 -21.000000 C 2307.833333 -7.000000 2242.000000 0.000000 2168.000000 0.000000 C 2073.333333 0.000000 1990.500000 -13.750000 1919.500000 -41.250000 C 1848.500000 -68.750000 1789.333333 -110.000000 1742.000000 -165.000000 C 1694.666667 -220.000000 1659.166667 -289.333333 1635.500000 -373.000000 C 1623.666667 -414.833333 1614.791667 -460.250000 1608.875000 -509.250000 C 1602.958333 -558.250000 1600.000000 -610.833333 1600.000000 -667.000000 C 1600.000000 -722.000000 1601.083333 -775.916667 1603.250000 -828.750000 C 1605.416667 -881.583333 1608.666667 -933.333333 1613.000000 -984.000000 C 1617.666667 -1035.000000 1622.750000 -1083.750000 1628.250000 -1130.250000 C 1633.750000 -1176.750000 1639.666667 -1221.000000 1646.000000 -1263.000000 C 1658.666667 -1347.000000 1671.000000 -1416.666667 1683.000000 -1472.000000 C 1736.000000 -1472.000000 1789.083333 -1472.000000 1842.250000 -1472.000000 C 1895.416667 -1472.000000 1948.666667 -1472.000000 2002.000000 -1472.000000 C 1998.000000 -1450.000000 1991.333333 -1412.333333 1982.000000 -1359.000000 C 1973.333333 -1306.333333 1964.000000 -1243.666667 1954.000000 -1171.000000 C 1944.000000 -1099.000000 1935.666667 -1021.000000 1929.000000 -937.000000 C 1923.000000 -853.666667 1920.000000 -769.333333 1920.000000 -684.000000 C 1920.000000 -606.333333 1925.333333 -539.916667 1936.000000 -484.750000 C 1946.666667 -429.583333 1962.666667 -385.666667 1984.000000 -353.000000 C 2027.333333 -288.333333 2089.000000 -256.000000 2169.000000 -256.000000 C 2233.000000 -256.000000 2284.000000 -269.333333 2322.000000 -296.000000 C 2360.000000 -323.333333 2387.666667 -368.666667 2405.000000 -432.000000 C 2423.000000 -496.000000 2432.000000 -581.333333 2432.000000 -688.000000 C 2432.000000 -750.333333 2430.750000 -810.666667 2428.250000 -869.000000 C 2425.750000 -927.333333 2422.000000 -983.666667 2417.000000 -1038.000000 C 2412.333333 -1092.333333 2407.416667 -1142.666667 2402.250000 -1189.000000 C 2397.083333 -1235.333333 2391.666667 -1277.666667 2386.000000 -1316.000000 C 2375.333333 -1392.666667 2368.000000 -1444.666667 2364.000000 -1472.000000z "/>
</g></svg>
