<?xml version="1.0" ?>
<svg xmlns="http://www.w3.org/2000/svg" version="1.1" width="600" height="600">
  <defs/>
  <g>
    <path stroke-width="0" fill="rgb(0, 0, 0)" opacity="1.0" d="M 351.08544921875 480.0 C 332.716796875 480.0 314.266845703125 480.0 295.735595703125 480.0 C 286.469970703125 480.0 277.1839599609375 480.0 267.877685546875 480.0 C 258.571533203125 480.0 249.244873046875 480.0 239.89794921875 480.0 C 239.5728759765625 477.56097412109375 239.16650390625 474.6341552734375 238.6788330078125 471.219482421875 C 238.191162109375 467.64227294921875 237.947265625 463.4146728515625 237.947265625 458.53662109375 C 237.947265625 444.7154541015625 239.979248046875 431.056884765625 244.0430908203125 417.56097412109375 C 248.10693359375 404.0650634765625 252.9024658203125 391.78863525390625 258.42919921875 380.731689453125 C 264.11865234375 369.6748046875 269.0765380859375 360.9755859375 273.302978515625 354.6341552734375 C 261.111328125 345.2032470703125 248.43212890625 334.4715576171875 235.26513671875 322.43902587890625 C 228.7630615234375 316.3414611816406 222.42333984375 309.5528564453125 216.2462158203125 302.07318115234375 C 210.069091796875 294.593505859375 204.0546875 286.4227600097656 198.20263671875 277.56097412109375 C 192.4320068359375 268.6991882324219 187.230224609375 258.8821105957031 182.597412109375 248.1097412109375 C 177.964599609375 237.33740234375 173.9007568359375 225.6097412109375 170.40576171875 212.92681884765625 C 166.910888671875 200.243896484375 164.2896728515625 186.23983764648438 162.542236328125 170.91461181640625 C 160.7947998046875 155.58941650390625 159.9210205078125 138.94308471679688 159.9210205078125 120.9755859375 C 175.8514404296875 120.9755859375 191.6192626953125 120.9755859375 207.2244873046875 120.9755859375 C 222.8297119140625 120.9755859375 238.2724609375 120.9755859375 253.5526123046875 120.9755859375 C 253.5526123046875 126.0162353515625 253.5526123046875 134.14633178710938 253.5526123046875 145.3658447265625 C 253.5526123046875 156.58535766601562 253.5526123046875 168.53659057617188 253.5526123046875 181.21951293945312 C 253.5526123046875 195.3658447265625 255.0765380859375 208.61788940429688 258.1243896484375 220.97561645507812 C 261.17236328125 233.33331298828125 265.744140625 244.7967529296875 271.8399658203125 255.3658447265625 C 278.01708984375 265.9349365234375 284.946044921875 275.38616943359375 292.626708984375 283.7195129394531 C 300.307373046875 292.0528564453125 308.739990234375 299.268310546875 317.92431640625 305.3658447265625 C 326.86474609375 295.6097412109375 334.6673583984375 282.92681884765625 341.3321533203125 267.31707763671875 C 347.9969482421875 251.70730590820312 353.1986083984375 235.1219482421875 356.9375 217.56097412109375 C 360.8387451171875 199.83740234375 362.7894287109375 183.33331298828125 362.7894287109375 168.04876708984375 C 362.7894287109375 158.13009643554688 362.626953125 149.91867065429688 362.3017578125 143.41461181640625 C 361.9765625 136.74795532226562 361.4888916015625 129.26828002929688 360.8387451171875 120.9755859375 C 374.24951171875 120.9755859375 387.53857421875 120.9755859375 400.705322265625 120.9755859375 C 413.872314453125 120.9755859375 426.91748046875 120.9755859375 439.84033203125 120.9755859375 C 440.16552734375 123.25204467773438 440.409423828125 125.69107055664062 440.57177734375 128.29266357421875 C 440.734375 130.731689453125 440.81591796875 133.98373413085938 440.81591796875 138.04876708984375 C 440.81591796875 150.56912231445312 440.16552734375 162.39837646484375 438.865234375 173.53659057617188 C 437.564453125 184.67477416992188 435.61376953125 195.1219482421875 433.01318359375 204.8780517578125 C 430.412109375 214.6341552734375 427.4658203125 223.96340942382812 424.17431640625 232.8658447265625 C 420.88232421875 241.76828002929688 417.245361328125 250.243896484375 413.2626953125 258.29266357421875 C 405.4599609375 274.2276306152344 397.2509765625 289.6748046875 388.6357421875 304.6341552734375 C 381.483154296875 317.47967529296875 374.7373046875 330.48779296875 368.3974609375 343.6585693359375 C 362.0579833984375 356.6666259765625 356.9375 370.48779296875 353.0361328125 385.1219482421875 C 349.134765625 399.756103515625 347.1842041015625 416.0975341796875 347.1842041015625 434.1463623046875 C 347.1842041015625 441.13818359375 347.50927734375 448.21142578125 348.1595458984375 455.3658447265625 C 348.9722900390625 462.35772705078125 349.9476318359375 470.569091796875 351.08544921875 480.0"/>
  </g>
</svg>
