<?xml version="1.0" ?>
<svg xmlns="http://www.w3.org/2000/svg" version="1.1" width="600" height="600">
  <defs/>
  <g>
    <path stroke-width="0" fill="rgb(0, 0, 0)" opacity="1.0" d="M 367.07318115234375 276.3414611816406 C 393.0819091796875 290.3251953125 411.8570556640625 305.0406494140625 423.3984375 320.48779296875 C 434.9398193359375 335.9349365234375 440.71051025390625 354.0650634765625 440.71051025390625 374.8780517578125 C 440.71051025390625 398.780517578125 434.1270751953125 418.455322265625 420.9600830078125 433.9024658203125 C 407.9556884765625 449.349609375 387.0673828125 460.894287109375 358.29522705078125 468.53662109375 C 329.52301025390625 476.1788330078125 291.64776611328125 480.0 244.66940307617188 480.0 C 233.61566162109375 480.0 221.9117431640625 480.0 209.55755615234375 480.0 C 197.20339965820312 480.0 183.22369384765625 480.0 167.618408203125 480.0 C 162.41665649414062 449.918701171875 159.8157958984375 422.11383056640625 159.8157958984375 396.5853271484375 C 159.8157958984375 370.894287109375 159.8157958984375 346.2601318359375 159.8157958984375 322.68292236328125 C 159.8157958984375 287.23577880859375 161.03494262695312 253.25201416015625 163.4732666015625 220.731689453125 C 165.91159057617188 188.21136474609375 169.569091796875 154.9593505859375 174.44570922851562 120.9755859375 C 190.3760986328125 120.9755859375 206.71286010742188 120.9755859375 223.45599365234375 120.9755859375 C 240.19915771484375 120.9755859375 257.1861267089844 120.9755859375 274.41693115234375 120.9755859375 C 306.1151123046875 120.9755859375 333.1805419921875 122.92681884765625 355.613037109375 126.82925415039062 C 378.20819091796875 130.56912231445312 395.43896484375 137.64227294921875 407.3055419921875 148.04876708984375 C 419.1719970703125 158.45526123046875 425.105224609375 173.73983764648438 425.105224609375 193.90243530273438 C 425.105224609375 212.11380004882812 419.740966796875 227.96746826171875 409.0123291015625 241.46340942382812 C 398.28369140625 254.7967529296875 384.303955078125 266.4227600097656 367.07318115234375 276.3414611816406M 245.15707397460938 277.80487060546875 C 258.486572265625 277.80487060546875 271.328369140625 275.9349365234375 283.68255615234375 272.19512939453125 C 296.0367431640625 268.4552917480469 307.2530212402344 263.33331298828125 317.3314208984375 256.82928466796875 C 327.5723876953125 250.3251953125 335.7000732421875 242.84552001953125 341.714599609375 234.3902587890625 C 347.72918701171875 225.93496704101562 350.7364501953125 216.91058349609375 350.7364501953125 207.31707763671875 C 350.7364501953125 195.4471435546875 344.3155517578125 187.56097412109375 331.47369384765625 183.65853881835938 C 318.7944030761719 179.593505859375 303.758056640625 177.56097412109375 286.3647155761719 177.56097412109375 C 276.6114196777344 177.56097412109375 267.6708984375 178.04876708984375 259.54315185546875 179.02438354492188 C 251.57797241210938 180.0 245.8885498046875 181.95120239257812 242.47491455078125 184.8780517578125 C 240.03659057617188 187.15447998046875 238.00466918945312 192.43902587890625 236.37911987304688 200.731689453125 C 234.91610717773438 208.86178588867188 234.18463134765625 218.45526123046875 234.18463134765625 229.51220703125 C 234.18463134765625 240.569091796875 234.18463134765625 251.70730590820312 234.18463134765625 262.92681884765625 C 234.18463134765625 267.64227294921875 234.91610717773438 271.30078125 236.37911987304688 273.9024353027344 C 238.00466918945312 276.5040588378906 240.9306640625 277.80487060546875 245.15707397460938 277.80487060546875M 282.9510498046875 423.4146728515625 C 297.41845703125 423.4146728515625 310.99176025390625 421.707275390625 323.6710510253906 418.292724609375 C 336.350341796875 414.8780517578125 346.59130859375 409.18701171875 354.3939208984375 401.219482421875 C 362.359130859375 393.25201416015625 366.3416748046875 382.84552001953125 366.3416748046875 370.0 C 366.3416748046875 359.918701171875 363.6595458984375 350.650390625 358.29522705078125 342.19512939453125 C 353.093505859375 333.5772705078125 346.4287109375 326.82928466796875 338.30096435546875 321.95123291015625 C 330.3358154296875 316.9105529785156 322.289306640625 314.3902587890625 314.1615905761719 314.3902587890625 C 308.47216796875 314.3902587890625 300.42572021484375 315.5284423828125 290.022216796875 317.80487060546875 C 279.6186828613281 319.918701171875 268.7275390625 323.00811767578125 257.34869384765625 327.07318115234375 C 247.43283081054688 330.81298828125 241.09320068359375 335.1219482421875 238.32977294921875 340.0 C 235.56634521484375 344.7154541015625 234.18463134765625 351.382080078125 234.18463134765625 360.0 C 234.18463134765625 373.8211669921875 234.91610717773438 385.5284423828125 236.37911987304688 395.1219482421875 C 238.00466918945312 404.7154541015625 241.09320068359375 411.707275390625 245.64471435546875 416.0975341796875 C 249.05838012695312 419.0244140625 253.04095458984375 420.9755859375 257.592529296875 421.95123291015625 C 262.14404296875 422.92681884765625 270.5968933105469 423.4146728515625 282.9510498046875 423.4146728515625"/>
  </g>
</svg>
