<?xml version="1.0" ?>
<svg xmlns="http://www.w3.org/2000/svg" version="1.1" width="600" height="600">
  <defs/>
  <g>
    <path stroke-width="0" fill="rgb(0, 0, 0)" opacity="1.0" d="M 353.5098876953125 120.9755859375 C 368.62744140625 120.9755859375 383.602783203125 120.9755859375 398.4359130859375 120.9755859375 C 413.26904296875 120.9755859375 427.9599609375 120.9755859375 442.508544921875 120.9755859375 C 444.621826171875 128.86178588867188 446.5318603515625 137.43902587890625 448.2386474609375 146.70730590820312 C 449.9454345703125 155.97561645507812 451.4490966796875 165.93496704101562 452.74951171875 176.58535766601562 C 454.1312255859375 187.23574829101562 455.16748046875 198.25204467773438 455.8583984375 209.63412475585938 C 456.54931640625 221.0162353515625 456.8946533203125 232.76422119140625 456.8946533203125 244.8780517578125 C 456.8946533203125 256.9105529785156 456.8946533203125 268.9634094238281 456.8946533203125 281.03656005859375 C 456.8946533203125 293.1097412109375 456.8946533203125 305.2032470703125 456.8946533203125 317.31707763671875 C 456.8946533203125 331.3008117675781 456.8946533203125 345.2032470703125 456.8946533203125 359.0244140625 C 456.8946533203125 372.84552001953125 456.8946533203125 386.5853271484375 456.8946533203125 400.243896484375 C 456.8946533203125 413.9024658203125 456.2445068359375 427.3780517578125 454.944091796875 440.67071533203125 C 453.6435546875 453.96337890625 451.69287109375 467.07318115234375 449.092041015625 480.0 C 434.380859375 480.0 419.5274658203125 480.0 404.53173828125 480.0 C 397.033935546875 480.0 389.50048828125 480.0 381.9315185546875 480.0 C 374.362548828125 480.0 366.758056640625 480.0 359.117919921875 480.0 C 353.6317138671875 467.39837646484375 348.1251220703125 455.081298828125 342.598388671875 443.04876708984375 C 337.071533203125 431.0162353515625 331.5242919921875 419.268310546875 325.956787109375 407.80487060546875 C 320.3892822265625 396.3414306640625 314.801513671875 385.16259765625 309.193359375 374.268310546875 C 303.585205078125 363.3740234375 297.9566650390625 352.76422119140625 292.3079833984375 342.43902587890625 C 286.6998291015625 332.07318115234375 280.9697265625 321.7530517578125 275.1177978515625 311.4786376953125 C 269.2657470703125 301.20428466796875 263.2918701171875 290.9755859375 257.196044921875 280.79266357421875 C 251.100341796875 270.6097412109375 244.882568359375 260.4725341796875 238.54296875 250.381103515625 C 232.2032470703125 240.28961181640625 225.74169921875 230.243896484375 219.1583251953125 220.243896484375 C 219.1583251953125 231.1788330078125 219.1583251953125 241.8038330078125 219.1583251953125 252.118896484375 C 219.1583251953125 262.4339599609375 219.1583251953125 272.43902587890625 219.1583251953125 282.1341552734375 C 219.1583251953125 291.82928466796875 219.1583251953125 301.21441650390625 219.1583251953125 310.28961181640625 C 219.1583251953125 319.36480712890625 219.1583251953125 328.13006591796875 219.1583251953125 336.5853271484375 C 219.1583251953125 345.0 219.300537109375 353.1097412109375 219.5849609375 360.9146728515625 C 219.869384765625 368.719482421875 220.296142578125 376.219482421875 220.8651123046875 383.4146728515625 C 222.0029296875 397.80487060546875 223.709716796875 410.9755859375 225.985595703125 422.92681884765625 C 228.342529296875 434.8780517578125 230.47607421875 445.6097412109375 232.38623046875 455.1219482421875 C 234.2962646484375 464.6341552734375 235.982666015625 472.92681884765625 237.4456787109375 480.0 C 223.709716796875 480.0 209.95361328125 480.0 196.1771240234375 480.0 C 182.4005126953125 480.0 168.6036376953125 480.0 154.78662109375 480.0 C 153.1610107421875 467.31707763671875 151.71826171875 454.1463623046875 150.45849609375 440.48779296875 C 149.19873046875 426.8292236328125 148.121826171875 412.68292236328125 147.227783203125 398.04876708984375 C 146.4149169921875 383.4146728515625 145.805419921875 368.86181640625 145.3990478515625 354.3902587890625 C 144.99267578125 339.918701171875 144.7894287109375 325.5284423828125 144.7894287109375 311.2195129394531 C 144.7894287109375 297.47967529296875 144.7894287109375 284.1056823730469 144.7894287109375 271.0975341796875 C 144.7894287109375 258.08941650390625 144.7894287109375 245.4471435546875 144.7894287109375 233.17071533203125 C 144.7894287109375 220.81301879882812 145.1551513671875 209.10568237304688 145.88671875 198.04876708984375 C 146.6181640625 186.99185180664062 147.7154541015625 176.58535766601562 149.178466796875 166.82925415039062 C 150.641357421875 157.07315063476562 152.1654052734375 148.29266357421875 153.750244140625 140.48779296875 C 155.335205078125 132.68292236328125 156.9810791015625 125.8536376953125 158.6878662109375 120.0 C 170.14794921875 120.9755859375 181.62841796875 121.46340942382812 193.129150390625 121.46340942382812 C 204.6298828125 121.46340942382812 216.1510009765625 120.9755859375 227.6923828125 120.0 C 232.1219482421875 125.3658447265625 236.84619140625 131.42782592773438 241.8651123046875 138.18597412109375 C 246.884033203125 144.94412231445312 252.197509765625 152.39837646484375 257.8056640625 160.54876708984375 C 263.413818359375 168.69915771484375 269.316650390625 177.54571533203125 275.5140380859375 187.08840942382812 C 281.7113037109375 196.631103515625 288.203369140625 206.86990356445312 294.9901123046875 217.80487060546875 C 301.77685546875 228.73983764648438 308.6904296875 240.49285888671875 315.7310791015625 253.06402587890625 C 319.25146484375 259.3495788574219 322.803466796875 265.83966064453125 326.3873291015625 272.5343017578125 C 329.9710693359375 279.2289123535156 333.586669921875 286.1280517578125 337.2340087890625 293.231689453125 C 340.88134765625 300.3353576660156 344.5604248046875 307.6435546875 348.271240234375 315.15625 C 351.9820556640625 322.6689453125 355.7247314453125 330.38616943359375 359.4990234375 338.30792236328125 C 363.273193359375 346.22967529296875 367.079345703125 354.35595703125 370.9171142578125 362.686767578125 C 374.7550048828125 371.01751708984375 378.62451171875 379.5528564453125 382.52587890625 388.29266357421875 C 382.52587890625 374.83740234375 382.393798828125 361.900390625 382.129638671875 349.481689453125 C 381.865478515625 337.06298828125 381.46923828125 325.16259765625 380.94091796875 313.7804870605469 C 380.4127197265625 302.39837646484375 379.7523193359375 291.5345458984375 378.9598388671875 281.18902587890625 C 378.1673583984375 270.843505859375 377.242919921875 261.0162658691406 376.186279296875 251.70730590820312 C 375.129638671875 242.39837646484375 374.057861328125 233.58230590820312 372.970703125 225.2591552734375 C 371.883544921875 216.93597412109375 370.7813720703125 209.10568237304688 369.6636962890625 201.76828002929688 C 367.4285888671875 187.093505859375 365.1324462890625 174.39022827148438 362.7755126953125 163.65853881835938 C 358.2239990234375 142.19509887695312 355.1353759765625 127.96746826171875 353.5098876953125 120.9755859375"/>
  </g>
</svg>
